<svg width="67" height="171" viewBox="0 0 67 171" fill="none" xmlns="http://www.w3.org/2000/svg">
<g clip-path="url(#clip0_465_204)">
<path d="M23.1074 97.1322C25.7051 98.822 27.4688 101.518 27.7464 104.634C28.3507 107.354 27.2501 110.257 26.0148 112.601C23.6669 114.672 20.5579 115.822 17.5722 116.544C14.1249 116.229 10.2039 115.822 8.00064 112.779C5.78258 110.498 5.18585 107.091 4.76457 104.055C5.14242 99.6935 6.00672 94.8551 10.1199 92.4478C14.3446 88.7416 19.8857 86.89 25.3555 86.0794C32.2636 84.9737 39.3112 85.6573 46.1401 86.8708C50.4573 88.7581 54.98 90.547 58.1948 94.1455C60.2929 95.8919 61.468 98.5447 62.5971 100.969C63.9375 103.763 63.4455 106.883 63.2348 109.852C62.4329 112.123 61.9024 114.241 60.0564 116.196C58.199 118.718 56.251 121.175 52.9892 122.477C51.6913 123.088 48.6412 123.593 48.2762 124.237C51.5517 125.59 54.9734 126.688 57.5895 129.197C59.8265 131.287 62.3367 133.198 63.3522 136.214C64.8583 139.384 65.1121 143.009 64.7286 146.473C64.6461 149.069 63.5767 151.595 62.7254 153.992C60.6173 156.644 58.6049 159.397 55.6111 161.11C52.5307 163.628 48.8944 165.421 45.1545 166.674C41.5499 167.517 37.9428 168.336 34.2176 167.964C27.7115 168.142 21.0505 167.331 15.2993 164.063C9.42948 161.805 3.74785 156.835 3.61979 150.086C2.94187 147.6 3.45807 144.849 4.46131 142.547C6.34748 138.785 10.3738 136.591 14.4914 136.415C17.6524 135.705 20.8917 137.04 23.5207 138.704C25.0899 140.188 26.484 141.77 26.6765 144.019C27.3643 146.866 27.3561 150.173 26.0467 152.794C24.9446 154.843 22.5158 156.867 23.6153 159.353C25.3691 160.401 27.1042 161.525 29.2338 161.028C31.6119 160.983 34.1539 160.657 36.3103 159.713C39.5455 157.835 42.2486 154.976 43.2601 151.303C45.2694 146.753 45.1034 141.359 42.5047 137.056C40.491 134.241 37.9088 131.48 34.7184 130.044C30.5665 128.525 26.1627 127.939 21.7871 127.479L21.9902 121.267C26.2708 120.974 30.7656 120.87 34.7751 119.287C37.2278 118.225 39.6465 116.557 40.9438 114.202C42.0039 112.074 42.8711 109.903 42.5614 107.478C42.7959 104.4 41.928 101.302 40.9773 98.4296C39.9894 95.9877 37.8941 94.3647 35.7097 93.0736C31.9674 91.5816 27.7538 91.5168 23.9514 92.7958C22.0676 93.1085 21.191 95.533 22.8152 96.7416L23.0004 96.9892L23.1074 97.1322Z" fill="black"/>
<path d="M23.1074 12.6102C25.7051 14.3 27.4688 16.996 27.7464 20.112C28.3507 22.8322 27.2501 25.7347 26.0148 28.0789C23.6669 30.1496 20.5579 31.2997 17.5722 32.0225C14.1249 31.7072 10.2039 31.3005 8.00064 28.2566C5.78258 25.9761 5.18585 22.5689 4.76457 19.5335C5.14242 15.1715 6.00672 10.3331 10.1199 7.92581C14.3446 4.2196 19.8857 2.36806 25.3555 1.55743C32.2636 0.451764 39.3112 1.13533 46.1401 2.34879C50.4573 4.23614 54.98 6.02499 58.1948 9.6235C60.2929 11.3699 61.468 14.0227 62.5971 16.4471C63.9375 19.2408 63.4455 22.3608 63.2348 25.3296C62.4329 27.6006 61.9024 29.7189 60.0564 31.6739C58.199 34.1962 56.251 36.6533 52.9892 37.9545C51.6913 38.566 48.6412 39.0712 48.2762 39.7146C51.5517 41.0684 54.9734 42.1662 57.5895 44.6751C59.8265 46.765 62.3367 48.6757 63.3522 51.6915C64.8583 54.8616 65.1121 58.4867 64.7286 61.9508C64.6461 64.5473 63.5767 67.0731 62.7254 69.4704C60.6173 72.1222 58.6049 74.8754 55.6111 76.5882C52.5307 79.1062 48.8944 80.8994 45.1545 82.1519C41.5499 82.995 37.9428 83.8139 34.2176 83.4419C27.7115 83.6202 21.0505 82.8092 15.2993 79.5414C9.42948 77.2833 3.74785 72.3129 3.61979 65.5644C2.94187 63.0783 3.45807 60.327 4.46131 58.0251C6.34748 54.2633 10.3738 52.0686 14.4914 51.8929C17.6524 51.1826 20.8917 52.5176 23.5207 54.1822C25.0899 55.6663 26.484 57.2477 26.6765 59.4971C27.3643 62.3442 27.3561 65.6511 26.0467 68.2723C24.9446 70.3207 22.5158 72.3454 23.6153 74.8315C25.3691 75.8788 27.1042 77.0026 29.2338 76.5064C31.6119 76.4612 34.1539 76.1349 36.3103 75.191C39.5455 73.3132 42.2486 70.4542 43.2601 66.7807C45.2694 62.2308 45.1034 56.8374 42.5047 52.5343C40.491 49.7191 37.9088 46.9582 34.7184 45.5225C30.5665 44.0031 26.1627 43.417 21.7871 42.9571L21.9902 36.7451C26.2708 36.452 30.7656 36.3482 34.7751 34.7655C37.2278 33.7027 39.6465 32.0352 40.9438 29.6803C42.0039 27.5518 42.8711 25.3815 42.5614 22.9563C42.7959 19.8783 41.928 16.7798 40.9773 13.9077C39.9894 11.4658 37.8941 9.84269 35.7097 8.55167C31.9674 7.05963 27.7538 6.99487 23.9514 8.2738C22.0676 8.58648 21.191 11.011 22.8152 12.2196L23.0004 12.4672L23.1074 12.6102Z" fill="black"/>
</g>
<defs>
<clipPath id="clip0_465_204">
<rect width="67" height="170.545" fill="white"/>
</clipPath>
</defs>
</svg>
