<svg width="67" height="171" viewBox="0 0 67 171" fill="none" xmlns="http://www.w3.org/2000/svg">
<g clip-path="url(#clip0_465_204)">
<path d="M23.3454 32.5387C17.308 33.929 9.93155 30.97 8.15768 24.5286C6.23066 17.7591 10.0374 10.3515 15.651 6.65995C25.1002 0.194724 37.65 -0.772236 48.2635 3.12345C53.948 4.54225 58.2769 9.33199 60.7375 14.5296C61.9579 19.0688 62.0744 23.9807 61.0365 28.5582C59.458 32.6387 55.4549 34.8645 52.6592 37.9778C44.9609 44.7333 34.7402 46.9079 25.8777 51.5143C22.7936 53.3256 19.9258 55.5784 17.6476 58.3786C23.7968 58.9011 29.9897 58.6513 36.1579 58.8855L59.2405 59.303C63.0712 57.8752 63.1014 59.2521 62.1832 63.1877C60.932 68.1328 59.5255 73.0352 58.2084 77.9622H5.05371C6.40868 71.1612 6.93203 63.6622 11.689 58.2277C15.974 52.2459 21.5554 47.3547 27.7658 43.5412C31.3197 40.9751 35.1641 38.6718 38.3825 35.718C41.1778 31.5211 44.3847 26.9885 44.01 21.6463C44.399 17.0152 43.5592 11.2027 39.0748 8.86762C33.9452 6.97863 27.9772 6.96477 22.9545 9.18962C19.4673 12.3735 26.5804 13.5955 27.9217 15.8897C30.8176 19.0901 30.7956 24.1728 28.9722 27.8836C27.7064 30.0395 25.6387 31.6532 23.3454 32.5387Z" fill="black"/>
<path d="M22.874 98.0935C25.4717 99.7789 27.2354 102.468 27.513 105.575C28.1173 108.288 27.0167 111.183 25.7814 113.521C23.4335 115.586 20.3245 116.733 17.3388 117.454C13.8915 117.14 9.97048 116.734 7.76724 113.698C5.54918 111.424 4.95245 108.026 4.53117 104.998C4.90902 100.648 5.77332 95.8224 9.88649 93.4216C14.1112 89.7252 19.6523 87.8786 25.1221 87.0701C32.0302 85.9674 39.0778 86.6491 45.9067 87.8594C50.2239 89.7417 54.7466 91.5258 57.9614 95.1147C60.0595 96.8565 61.2346 99.5022 62.3637 101.92C63.7041 104.706 63.2121 107.818 63.0014 110.779C62.1995 113.044 61.669 115.157 59.823 117.106C57.9656 119.622 56.0176 122.073 52.7558 123.37C51.4579 123.98 48.4078 124.484 48.0428 125.126C51.3183 126.476 54.74 127.571 57.3561 130.073C59.5931 132.158 62.1033 134.063 63.1188 137.071C64.6249 140.233 64.8787 143.848 64.4952 147.303C64.4127 149.893 63.3433 152.412 62.492 154.803C60.3839 157.447 58.3715 160.193 55.3777 161.901C52.2973 164.413 48.661 166.201 44.9211 167.45C41.3165 168.291 37.7094 169.108 33.9842 168.737C27.4781 168.915 20.8171 168.106 15.0659 164.847C9.19608 162.595 3.51445 157.637 3.38639 150.907C2.70847 148.427 3.22467 145.684 4.22791 143.388C6.11408 139.636 10.1404 137.447 14.258 137.272C17.419 136.563 20.6583 137.895 23.2873 139.555C24.8565 141.035 26.2506 142.612 26.4431 144.856C27.1309 147.695 27.1227 150.993 25.8133 153.608C24.7112 155.651 22.2824 157.67 23.3819 160.149C25.1357 161.194 26.8708 162.315 29.0004 161.82C31.3785 161.775 33.9205 161.449 36.0769 160.508C39.3121 158.635 42.0152 155.784 43.0267 152.12C45.036 147.582 44.87 142.203 42.2713 137.912C40.2576 135.104 37.6754 132.35 34.485 130.918C30.3331 129.403 25.9293 128.818 21.5537 128.36L21.7568 122.164C26.0374 121.872 30.5322 121.768 34.5417 120.19C36.9944 119.13 39.4131 117.467 40.7104 115.118C41.7705 112.995 42.6377 110.831 42.328 108.412C42.5625 105.342 41.6946 102.252 40.7439 99.3875C39.756 96.9521 37.6607 95.3333 35.4763 94.0458C31.734 92.5577 27.5204 92.4931 23.718 93.7686C21.8342 94.0805 20.9576 96.4986 22.5818 97.7039L22.767 97.9509L22.874 98.0935Z" fill="black"/>
</g>
<defs>
<clipPath id="clip0_465_204">
<rect width="67" height="170.545" fill="white"/>
</clipPath>
</defs>
</svg>
