<svg width="378" height="1397" viewBox="0 0 378 1397" fill="none" xmlns="http://www.w3.org/2000/svg">
<path d="M7.29491 1253.45C-0.765421 1298.9 44.1298 1393.29 134.454 1396.38C243.649 1400.1 313.412 1311.88 280.911 1167.89L117.915 373.351C98.5114 278.768 113.075 227.467 123.436 196.894C151.077 115.326 220.135 81.6835 236.948 107.797C246.546 122.706 269.756 192.419 203.688 317.28C152.161 414.661 -87.575 542.357 -105.169 770.878C-120.399 969.598 76.5506 1116.37 246.536 1058.67C359.394 1020.36 417.573 839.449 347.718 746.131C163.369 499.864 -132.28 876.759 154.119 980.011C122.976 954.131 101.749 934.092 97.796 909.599C59.3139 671.128 398.797 734.089 307.327 960.323C269.714 1053.35 117.787 1071.35 31.2663 988.353C-41.2119 918.828 -73.3731 784.897 7.28243 688.748C116.522 558.524 245.498 441.62 279.753 263.352C320.262 52.5442 188.004 -111.804 104.389 95.5568C76.3326 165.136 65.8813 234.984 92.7461 368.832L255.614 1180.28C267.274 1238.38 259.468 1318.32 208.133 1355.06C182.704 1373.26 92.7209 1385.79 70.7063 1342.34" fill="#EFECE6"/>
<path d="M6.05672 1260.27C6.44551 1238.39 14.9074 1217.57 29.5807 1202.39C44.2541 1187.21 63.937 1178.9 84.2995 1179.31C104.662 1179.71 124.036 1188.79 138.16 1204.54C152.283 1220.3 159.999 1241.44 159.61 1263.31C159.222 1285.19 150.76 1306.01 136.086 1321.2C121.413 1336.38 101.73 1344.68 81.3677 1344.28C61.0052 1343.88 41.6312 1334.8 27.5076 1319.04C13.3841 1303.29 5.66794 1282.15 6.05672 1260.27Z" fill="#EFECE6"/>
</svg>
