<svg width="1171" height="186" viewBox="0 0 1171 186" fill="none" xmlns="http://www.w3.org/2000/svg">
<path d="M8.4 181.424C8.00533 181.755 7.664 182.096 7.376 182.448C7.088 182.8 6.85333 183.163 6.672 183.536L6.384 183.536C6.01067 182.8 5.43467 182.096 4.656 181.424L4.656 180.864C5.01867 181.035 5.33867 181.205 5.616 181.376C5.88267 181.547 6.10667 181.712 6.288 181.872L6.768 181.872C6.93867 181.712 7.16267 181.547 7.44 181.376C7.70667 181.205 8.02667 181.035 8.4 180.864L8.4 181.424ZM6.864 181.952L6.192 181.952L6.192 172.464L6.864 172.464L6.864 181.952ZM12.24 159.403C12.24 159.894 12.1813 160.401 12.064 160.923C11.9573 161.435 11.8027 161.937 11.6 162.427C11.3867 162.918 11.1307 163.387 10.832 163.835L7.456 163.515L7.456 163.323L9.456 163.083C9.98933 163.03 10.448 162.843 10.832 162.523C11.2053 162.203 11.4933 161.766 11.696 161.211C11.8987 160.657 12 160.027 12 159.323C12 158.63 11.9093 158.043 11.728 157.563C11.5467 157.073 11.2853 156.699 10.944 156.443C10.592 156.177 10.176 156.043 9.696 156.043C9.23733 156.043 8.83733 156.161 8.496 156.395C8.15467 156.619 7.84 156.993 7.552 157.515C7.25333 158.038 6.95467 158.747 6.656 159.643C6.304 160.635 5.96267 161.425 5.632 162.011C5.29067 162.587 4.928 162.998 4.544 163.243C4.16 163.489 3.712 163.611 3.2 163.611C2.784 163.611 2.40533 163.521 2.064 163.339C1.72266 163.147 1.42933 162.875 1.184 162.523C0.938665 162.171 0.751998 161.745 0.623999 161.243C0.495998 160.731 0.431998 160.161 0.431998 159.531C0.431998 158.934 0.495998 158.379 0.623998 157.867C0.741331 157.355 0.906665 156.886 1.12 156.459C1.32267 156.033 1.55733 155.665 1.824 155.355L4.912 155.787L4.912 155.979L3.504 156.091C2.85333 156.155 2.32 156.331 1.904 156.619C1.488 156.897 1.17867 157.286 0.975999 157.787C0.773332 158.289 0.671999 158.891 0.671999 159.595C0.671999 160.278 0.757332 160.859 0.927998 161.339C1.088 161.819 1.328 162.187 1.648 162.443C1.95733 162.699 2.33067 162.827 2.768 162.827C3.20533 162.827 3.59467 162.71 3.936 162.475C4.26667 162.241 4.58133 161.851 4.88 161.307C5.168 160.763 5.472 160.022 5.792 159.083C6.03733 158.337 6.28267 157.713 6.528 157.211C6.77333 156.699 7.03467 156.289 7.312 155.979C7.57867 155.67 7.872 155.451 8.192 155.323C8.50133 155.185 8.85867 155.115 9.264 155.115C9.65867 155.115 10.016 155.185 10.336 155.323C10.6453 155.462 10.9173 155.659 11.152 155.915C11.3867 156.171 11.5893 156.475 11.76 156.827C11.92 157.179 12.0373 157.574 12.112 158.011C12.1973 158.449 12.24 158.913 12.24 159.403ZM9.84 143.707C10.3627 144.006 10.8053 144.379 11.168 144.827C11.52 145.265 11.7867 145.755 11.968 146.299C12.1493 146.843 12.24 147.425 12.24 148.043C12.24 148.801 12.112 149.489 11.856 150.107C11.5893 150.726 11.2053 151.259 10.704 151.707C10.192 152.155 9.57867 152.497 8.864 152.731C8.13867 152.955 7.31733 153.067 6.4 153.067C5.51466 153.067 4.70933 152.945 3.984 152.699C3.248 152.454 2.61866 152.102 2.096 151.643C1.56266 151.174 1.152 150.625 0.863998 149.995C0.575998 149.355 0.431998 148.646 0.431998 147.867C0.431998 147.249 0.495998 146.678 0.623998 146.155C0.741331 145.633 0.917331 145.163 1.152 144.747C1.38666 144.331 1.66933 143.974 2 143.675L5.92 144.475L5.92 144.747L3.632 144.683C2.94933 144.651 2.38933 144.753 1.952 144.987C1.51466 145.222 1.18933 145.59 0.975998 146.091C0.762664 146.593 0.655997 147.243 0.655998 148.043C0.655998 148.63 0.794664 149.174 1.072 149.675C1.33866 150.177 1.72266 150.603 2.224 150.955C2.71467 151.307 3.296 151.585 3.968 151.787C4.62933 151.979 5.35466 152.075 6.144 152.075C6.976 152.075 7.73333 151.979 8.416 151.787C9.088 151.585 9.67466 151.291 10.176 150.907C10.6667 150.523 11.0453 150.054 11.312 149.499C11.568 148.934 11.696 148.283 11.696 147.547C11.696 146.801 11.5253 146.107 11.184 145.467C10.8427 144.817 10.3573 144.283 9.728 143.867L9.84 143.707ZM12.24 132.514C12.24 132.759 12.1493 132.999 11.968 133.234C11.7867 133.458 11.4987 133.698 11.104 133.954C10.6987 134.21 10.1653 134.498 9.504 134.818C8.672 135.202 8.01066 135.597 7.52 136.002C7.01866 136.407 6.672 136.855 6.48 137.346L6.48 139.442L11.616 139.442L11.84 138.386L12 138.386L12 141.49L11.84 141.49L11.616 140.45L1.056 140.45L0.831998 141.49L0.671998 141.49L0.671998 136.53C0.671998 135.751 0.773331 135.09 0.975998 134.546C1.17866 134.002 1.48266 133.591 1.888 133.314C2.28266 133.037 2.784 132.898 3.392 132.898C3.91466 132.898 4.38933 133.042 4.816 133.33C5.232 133.607 5.57333 134.023 5.84 134.578C6.096 135.122 6.26666 135.789 6.352 136.578L6.448 136.578C6.49066 136.311 6.57066 136.061 6.688 135.826C6.80533 135.591 6.96533 135.373 7.168 135.17C7.37066 134.957 7.62133 134.759 7.92 134.578C8.208 134.386 8.54933 134.199 8.944 134.018C9.62666 133.698 10.1813 133.426 10.608 133.202C11.0347 132.967 11.3493 132.759 11.552 132.578C11.744 132.397 11.8453 132.237 11.856 132.098C11.8773 131.981 11.8667 131.858 11.824 131.73L11.984 131.73C12.0373 131.805 12.08 131.89 12.112 131.986C12.1547 132.082 12.1867 132.178 12.208 132.274C12.2293 132.359 12.24 132.439 12.24 132.514ZM6.192 137.554C6.192 136.989 6.128 136.482 6 136.034C5.872 135.575 5.68533 135.186 5.44 134.866C5.19466 134.535 4.90133 134.29 4.56 134.13C4.21866 133.959 3.83466 133.874 3.408 133.874C2.864 133.874 2.41066 133.991 2.048 134.226C1.67466 134.45 1.392 134.786 1.2 135.234C1.008 135.671 0.911998 136.21 0.911998 136.85C0.911998 137.405 0.922664 137.895 0.943997 138.322C0.965331 138.749 1.00266 139.122 1.056 139.442L6.096 139.442C6.128 139.25 6.15466 139.015 6.176 138.738C6.18666 138.461 6.192 138.066 6.192 137.554ZM0.431997 125.624C0.431997 124.878 0.559996 124.206 0.815996 123.608C1.072 123 1.45066 122.483 1.952 122.056C2.44266 121.63 3.05066 121.304 3.776 121.08C4.49066 120.846 5.32266 120.728 6.272 120.728C7.22133 120.728 8.06933 120.84 8.816 121.064C9.552 121.288 10.176 121.619 10.688 122.056C11.1893 122.483 11.5733 122.995 11.84 123.592C12.1067 124.19 12.24 124.867 12.24 125.624C12.24 126.382 12.1067 127.064 11.84 127.672C11.5733 128.27 11.1893 128.787 10.688 129.224C10.176 129.651 9.54666 129.976 8.8 130.2C8.05333 130.424 7.21066 130.536 6.272 130.536C5.35466 130.536 4.53866 130.424 3.824 130.2C3.09866 129.976 2.48533 129.651 1.984 129.224C1.48266 128.798 1.09866 128.28 0.831997 127.672C0.56533 127.064 0.431997 126.382 0.431997 125.624ZM0.655997 125.624C0.655997 126.243 0.778663 126.792 1.024 127.272C1.26933 127.752 1.632 128.158 2.112 128.488C2.58133 128.819 3.16266 129.075 3.856 129.256C4.54933 129.427 5.34933 129.512 6.256 129.512C7.184 129.512 8.00533 129.427 8.72 129.256C9.43466 129.075 10.0373 128.819 10.528 128.488C11.008 128.158 11.376 127.752 11.632 127.272C11.888 126.792 12.016 126.243 12.016 125.624C12.016 124.995 11.8933 124.446 11.648 123.976C11.392 123.496 11.0187 123.096 10.528 122.776C10.0373 122.446 9.43466 122.195 8.72 122.024C8.00533 121.854 7.184 121.768 6.256 121.768C5.34933 121.768 4.54933 121.854 3.856 122.024C3.152 122.195 2.56533 122.446 2.096 122.776C1.616 123.096 1.25866 123.496 1.024 123.976C0.778663 124.446 0.655997 124.995 0.655997 125.624ZM12 118.537L11.84 118.537L11.68 117.497L0.991997 117.497L0.831997 118.537L0.671997 118.537L0.671997 115.433L0.831997 115.433L0.991997 116.489L11.76 116.489L11.76 112.457C11.76 112.233 11.7013 112.046 11.584 111.897C11.456 111.737 11.2587 111.609 10.992 111.513C10.7253 111.406 10.3733 111.332 9.936 111.289L7.904 111.209L7.904 110.953L12 110.521L12 118.537ZM12 108.756L11.84 108.756L11.68 107.716L0.991996 107.716L0.831996 108.756L0.671997 108.756L0.671996 105.652L0.831996 105.652L0.991996 106.708L11.76 106.708L11.76 102.676C11.76 102.452 11.7013 102.265 11.584 102.116C11.456 101.956 11.2587 101.828 10.992 101.732C10.7253 101.625 10.3733 101.55 9.936 101.508L7.904 101.428L7.904 101.172L12 100.74L12 108.756ZM0.671996 89.0819C0.671996 87.9939 0.879995 87.0712 1.296 86.3139C1.71199 85.5565 2.33599 84.9805 3.16799 84.5859C3.98933 84.1912 5.024 83.9939 6.272 83.9939C7.54133 83.9939 8.60266 84.1859 9.456 84.5699C10.2987 84.9539 10.9333 85.5192 11.36 86.2659C11.7867 87.0125 12 87.9299 12 89.0179L12 93.8339L11.84 93.8339L11.616 92.7939L1.03999 92.7939L0.831996 93.8339L0.671996 93.8339L0.671996 89.0819ZM0.927995 89.2899C0.927995 89.7165 0.938662 90.1592 0.959995 90.6179C0.981329 91.0765 1.01333 91.4659 1.056 91.7859L11.44 91.7859L11.76 91.4659L11.76 89.2259C11.76 87.8072 11.296 86.7512 10.368 86.0579C9.44 85.3645 8.05866 85.0179 6.224 85.0179C5.06133 85.0179 4.09066 85.1779 3.31199 85.4979C2.52266 85.8072 1.93066 86.2765 1.53599 86.9059C1.13066 87.5352 0.927995 88.3299 0.927995 89.2899ZM0.431994 76.8586C0.431994 76.112 0.559994 75.44 0.815994 74.8426C1.07199 74.2346 1.45066 73.7173 1.95199 73.2906C2.44266 72.864 3.05066 72.5386 3.776 72.3146C4.49066 72.08 5.32266 71.9626 6.27199 71.9626C7.22133 71.9626 8.06933 72.0746 8.81599 72.2986C9.55199 72.5226 10.176 72.8533 10.688 73.2906C11.1893 73.7173 11.5733 74.2293 11.84 74.8266C12.1067 75.424 12.24 76.1013 12.24 76.8586C12.24 77.616 12.1067 78.2986 11.84 78.9066C11.5733 79.504 11.1893 80.0213 10.688 80.4586C10.176 80.8853 9.54666 81.2106 8.8 81.4346C8.05333 81.6586 7.21066 81.7706 6.272 81.7706C5.35466 81.7706 4.53866 81.6586 3.82399 81.4346C3.09866 81.2106 2.48533 80.8853 1.98399 80.4586C1.48266 80.032 1.09866 79.5146 0.831995 78.9066C0.565328 78.2986 0.431994 77.616 0.431994 76.8586ZM0.655994 76.8586C0.655994 77.4773 0.778661 78.0266 1.02399 78.5066C1.26933 78.9866 1.63199 79.392 2.11199 79.7226C2.58133 80.0533 3.16266 80.3093 3.856 80.4906C4.54933 80.6613 5.34933 80.7466 6.25599 80.7466C7.184 80.7466 8.00533 80.6613 8.72 80.4906C9.43466 80.3093 10.0373 80.0533 10.528 79.7226C11.008 79.392 11.376 78.9866 11.632 78.5066C11.888 78.0266 12.016 77.4773 12.016 76.8586C12.016 76.2293 11.8933 75.68 11.648 75.2106C11.392 74.7306 11.0187 74.3306 10.528 74.0106C10.0373 73.68 9.43466 73.4293 8.71999 73.2586C8.00533 73.088 7.18399 73.0026 6.25599 73.0026C5.34933 73.0026 4.54933 73.088 3.856 73.2586C3.15199 73.4293 2.56533 73.68 2.09599 74.0106C1.61599 74.3306 1.25866 74.7306 1.02399 75.2106C0.778661 75.68 0.655994 76.2293 0.655994 76.8586ZM12 59.5145L3.88799 62.5865L2.54399 62.0425L11.056 58.8105L11.056 58.6505L3.71199 55.8985C3.42399 55.7918 3.16266 55.7118 2.92799 55.6585C2.69333 55.6052 2.47999 55.5785 2.28799 55.5785C2.02133 55.5785 1.79199 55.6372 1.59999 55.7545C1.39733 55.8718 1.23199 56.0532 1.10399 56.2985C0.975994 56.5438 0.885327 56.8692 0.831994 57.2745L0.671994 57.2745L0.671994 53.5785L0.831994 53.5785L1.07199 54.6345L12 58.7785L12 59.5145ZM12 66.2025L1.05599 70.3785L0.831995 71.4185L0.671995 71.4185L0.671995 68.1545L0.831995 68.1545L1.03999 69.3065L11.056 65.5145L11.056 65.3545L3.72799 62.6025C3.45066 62.4958 3.18399 62.4158 2.92799 62.3625C2.67199 62.3092 2.44799 62.2825 2.25599 62.2825C1.83999 62.2825 1.51999 62.4158 1.29599 62.6825C1.06133 62.9385 0.906661 63.3705 0.831994 63.9785L0.671995 63.9785L0.671994 60.2665L0.831994 60.2665L1.05599 61.3225L12 65.4825L12 66.2025ZM12 52.4135L11.84 52.4135L11.616 51.2935L2.04799 51.2935C1.81333 51.2935 1.58399 51.4002 1.35999 51.6135C1.12533 51.8268 0.949327 52.0935 0.831994 52.4135L0.671994 52.4135L0.671994 50.8615L10.624 42.8775L10.624 42.6855L3.50399 42.6855C3.20533 42.6855 2.93333 42.7122 2.68799 42.7655C2.43199 42.8188 2.20266 42.9095 1.99999 43.0375C1.78666 43.1548 1.60533 43.3095 1.45599 43.5015C1.29599 43.6828 1.16799 43.9068 1.07199 44.1735C0.965327 44.4295 0.885327 44.7282 0.831994 45.0695L0.671994 45.0695L0.671994 41.2775L0.831993 41.2775L1.05599 42.4455L12 42.4455L12 43.0055L2.23999 50.8775L2.23999 51.0535L8.97599 51.0535C9.28533 51.0535 9.57333 51.0268 9.83999 50.9735C10.096 50.9095 10.3307 50.8188 10.544 50.7015C10.7573 50.5735 10.9493 50.4135 11.12 50.2215C11.28 50.0188 11.424 49.7788 11.552 49.5015C11.6693 49.2242 11.7653 48.8988 11.84 48.5255L12 48.5255L12 52.4135Z" fill="#2C231E"/>
<path d="M307.479 84.808C372.999 -19.9998 804.999 -20.0002 878.999 45.9998" stroke="#2C231E"/>
<line x1="38" y1="149.041" x2="1171" y2="149.041" stroke="#2C231E"/>
<line x1="38" y1="129.403" x2="1171" y2="129.403" stroke="#2C231E"/>
<line x1="38" y1="109.765" x2="1171" y2="109.765" stroke="#2C231E"/>
<line x1="38" y1="90.1265" x2="1171" y2="90.1265" stroke="#2C231E"/>
<line x1="38" y1="70.4883" x2="1171" y2="70.4883" stroke="#2C231E"/>
<path d="M49.3787 165.602C48.5692 170.167 53.0782 179.647 62.1499 179.957C73.1168 180.331 80.1234 171.47 76.8592 157.009L60.4887 77.2099C58.54 67.7105 60.0027 62.5581 61.0433 59.4875C63.8194 51.2953 70.7552 47.9164 72.4438 50.5391C73.4078 52.0365 75.7388 59.0381 69.1034 71.5784C63.9283 81.3588 39.8505 94.1839 38.0835 117.135C36.5538 137.094 56.3344 151.834 73.4068 146.039C84.7416 142.192 90.5848 124.022 83.5689 114.65C65.054 89.9161 35.3605 127.769 64.1249 138.139C60.9971 135.54 58.8651 133.528 58.4681 131.068C54.6032 107.117 88.699 113.44 79.5122 136.162C75.7346 145.505 60.4759 147.313 51.7863 138.977C44.507 131.995 41.2769 118.543 49.3775 108.887C60.3489 95.8076 73.3025 84.0665 76.7429 66.1622C80.8114 44.9898 67.5281 28.4836 59.1303 49.3098C56.3125 56.298 55.2628 63.3131 57.961 76.756L74.3185 158.254C75.4895 164.088 74.7055 172.117 69.5498 175.807C66.9959 177.635 57.9584 178.893 55.7474 174.53" fill="#2C231E"/>
<path d="M49.3787 165.602C48.5692 170.167 53.0782 179.647 62.1499 179.957C73.1168 180.331 80.1234 171.47 76.8592 157.009L60.4887 77.2099C58.54 67.7105 60.0027 62.5581 61.0433 59.4875C63.8194 51.2953 70.7552 47.9164 72.4438 50.5391C73.4078 52.0365 75.7388 59.0381 69.1034 71.5784C63.9283 81.3588 39.8505 94.1839 38.0835 117.135C36.5538 137.094 56.3344 151.834 73.4068 146.039C84.7416 142.192 90.5848 124.022 83.5689 114.65C65.054 89.9161 35.3605 127.769 64.1249 138.139C60.9971 135.54 58.8651 133.528 58.4681 131.068C54.6032 107.117 88.699 113.44 79.5122 136.162C75.7346 145.505 60.4759 147.313 51.7863 138.977C44.507 131.995 41.2769 118.543 49.3775 108.887C60.3489 95.8076 73.3025 84.0665 76.7429 66.1622C80.8114 44.9898 67.5281 28.4836 59.1303 49.3098C56.3125 56.298 55.2628 63.3131 57.961 76.756L74.3185 158.254C75.4895 164.088 74.7055 172.117 69.5498 175.807C66.9959 177.635 57.9584 178.893 55.7474 174.53" stroke="#2C231E" stroke-width="0.101028"/>
<path d="M49.2544 166.287C49.2935 164.09 50.1434 161.999 51.6171 160.474C53.0908 158.949 55.0676 158.115 57.1127 158.156C59.1578 158.196 61.1036 159.108 62.5221 160.69C63.9406 162.272 64.7156 164.396 64.6765 166.593C64.6375 168.79 63.7876 170.881 62.3139 172.406C60.8402 173.931 58.8634 174.765 56.8183 174.725C54.7732 174.684 52.8273 173.772 51.4089 172.19C49.9904 170.608 49.2154 168.484 49.2544 166.287Z" fill="#2C231E" stroke="#2C231E" stroke-width="0.101028"/>
<path d="M492.434 45.1631C492.814 43.1093 494.431 41.663 495.817 40.3284C498.887 37.7063 502.537 35.7211 506.415 35.1042C507.557 34.9998 509.385 34.968 509.565 36.569C509.727 38.2602 508.427 39.6098 507.436 40.757C504.895 43.3862 501.712 45.2301 498.412 46.4554C496.706 46.9658 494.715 47.6249 493.065 46.6598C492.62 46.331 492.345 45.7549 492.434 45.1631ZM496.757 49.8918C501.042 50.2587 505.338 48.0952 508.305 44.7764C510.293 42.4966 511.789 39.064 510.626 35.999C509.763 33.5416 507.273 32.3665 504.966 32.2869C501.001 32.0069 497.117 34.0101 494.211 36.8625C492.051 39.0636 490.305 42.3771 491.141 45.6315C491.744 48.0004 493.853 49.541 496.049 49.8011C496.284 49.8388 496.52 49.8697 496.757 49.8918Z" fill="#2C231E" stroke="#2C231E" stroke-width="0.400015"/>
<path d="M490.696 128.424L490.636 76.2369L490.57 44.2067L493.135 46.5523L492.921 128.446L490.696 128.424Z" fill="#2C231E"/>
<path opacity="0.97" fill-rule="evenodd" clip-rule="evenodd" d="M775.376 68.0883C780.187 65.3927 782.751 60.513 781.174 56.8421C779.492 52.9265 773.711 51.8215 768.271 54.3755C762.831 56.9295 759.781 62.1802 761.463 66.0958C763.145 70.0114 768.926 71.1164 774.366 68.5624C774.706 68.4028 775.055 68.268 775.376 68.0883Z" fill="#2C231E"/>
<path d="M761.139 131.894L761.083 94.6308L761.026 63.2181L763.414 63.2181L763.215 131.916L761.139 131.894Z" fill="#2C231E"/>
<path opacity="0.97" fill-rule="evenodd" clip-rule="evenodd" d="M886.376 76.0883C891.187 73.3927 893.751 68.513 892.174 64.8421C890.492 60.9265 884.711 59.8215 879.271 62.3755C873.831 64.9295 870.781 70.1802 872.463 74.0958C874.145 78.0114 879.926 79.1164 885.366 76.5624C885.706 76.4028 886.055 76.268 886.376 76.0883Z" fill="#2C231E"/>
<path d="M872.139 139.894L872.083 102.631L872.026 71.2181L874.414 71.2181L874.215 139.916L872.139 139.894Z" fill="#2C231E"/>
<path opacity="0.97" fill-rule="evenodd" clip-rule="evenodd" d="M312.036 115.897C316.848 113.202 319.411 108.322 317.834 104.651C316.152 100.736 310.371 99.6305 304.931 102.185C299.491 104.739 296.441 109.989 298.123 113.905C299.805 117.82 305.586 118.925 311.026 116.371C311.366 116.212 311.715 116.077 312.036 115.897Z" fill="#2C231E"/>
<path d="M297.8 179.703L297.743 142.44L297.686 111.027L300.074 111.027L299.875 179.725L297.8 179.703Z" fill="#2C231E"/>
<path opacity="0.97" fill-rule="evenodd" clip-rule="evenodd" d="M357.858 87.5316C362.67 84.836 365.234 79.9563 363.657 76.2854C361.974 72.3698 356.194 71.2648 350.753 73.8188C345.313 76.3728 342.263 81.6235 343.945 85.5391C345.627 89.4546 351.408 90.5597 356.848 88.0057C357.188 87.8461 357.537 87.7113 357.858 87.5316Z" fill="#2C231E"/>
<path d="M343.622 171.725L343.565 114.074L343.508 82.6609L345.896 82.6609L345.697 171.747L343.622 171.725Z" fill="#2C231E"/>
<path opacity="0.97" fill-rule="evenodd" clip-rule="evenodd" d="M403.681 67.8933C408.492 65.1976 411.056 60.3179 409.479 56.647C407.797 52.7314 402.016 51.6264 396.576 54.1804C391.135 56.7344 388.085 61.9851 389.767 65.9007C391.45 69.8163 397.23 70.9213 402.671 68.3673C403.011 68.2077 403.36 68.073 403.681 67.8933Z" fill="#2C231E"/>
<path d="M389.444 165.156L389.387 94.4357L389.33 63.0229L391.719 63.0229L391.52 165.179L389.444 165.156Z" fill="#2C231E"/>
<path d="M297.66 175.725L391.487 160.815V165.179L297.66 180.089V175.725Z" fill="#2C231E"/>
<path d="M297.66 166.633L391.487 151.723V156.087L297.66 170.998V166.633Z" fill="#2C231E"/>
<line x1="465.949" y1="70.2612" x2="465.949" y2="149.541" stroke="#2C231E" stroke-width="2"/>
<line x1="1038" y1="70.2612" x2="1038" y2="149.541" stroke="#2C231E" stroke-width="2"/>
<line x1="482.404" y1="50.8502" x2="515.862" y2="50.8502" stroke="#2C231E"/>
</svg>
