<svg class="hero__partition" width="1116" height="195" fill="none" xmlns="http://www.w3.org/2000/svg">
    <line x1="1" y1="163.5" x2="1115" y2="163.5" stroke="#2C231E"/>
    <line x1="1" y1="143.5" x2="1115" y2="143.5" stroke="#2C231E"/>
    <line x1="1" y1="124.5" x2="1115" y2="124.5" stroke="#2C231E"/>
    <line x1="1" y1="104.5" x2="1115" y2="104.5" stroke="#2C231E"/>
    <line x1="1" y1="84.5" x2="1115" y2="84.5" stroke="#2C231E"/>
    <rect x="1115.11" y="164" width="12" height="79" transform="rotate(-180 1115.11 164)" fill="#2C231E"/>
    <line x1="1093.61" y1="164" x2="1093.61" y2="85" stroke="#2C231E"/>
    <circle cx="1081.44" cy="137.667" r="3.43477" transform="rotate(-180 1081.44 137.667)" fill="#2C231E"/>
    <circle cx="1081.43" cy="111.333" r="3.43477" transform="rotate(-180 1081.43 111.333)" fill="#2C231E"/>
    <path d="M12.3787 180.085C11.5692 184.65 16.0782 194.13 25.1499 194.44C36.1168 194.814 43.1234 185.953 39.8592 171.492L23.4887 91.6928C21.54 82.1935 23.0027 77.0411 24.0433 73.9705C26.8194 65.7783 33.7552 62.3994 35.4438 65.0221C36.4078 66.5195 38.7388 73.5211 32.1034 86.0614C26.9283 95.8418 2.8505 108.667 1.0835 131.618C-0.446192 151.577 19.3344 166.317 36.4068 160.522C47.7416 156.675 53.5848 138.505 46.5689 129.133C28.054 104.399 -1.63946 142.252 27.1249 152.622C23.9971 150.023 21.8651 148.011 21.4681 145.551C17.6032 121.6 51.699 127.923 42.5122 150.645C38.7346 159.988 23.4759 161.796 14.7863 153.46C7.50695 146.478 4.27687 133.026 12.3775 123.37C23.3489 110.291 36.3025 98.5494 39.7429 80.6452C43.8114 59.4728 30.5281 42.9666 22.1303 63.7928C19.3125 70.7809 18.2628 77.796 20.961 91.239L37.3185 172.737C38.4895 178.571 37.7055 186.6 32.5498 190.29C29.9959 192.118 20.9584 193.376 18.7474 189.013" fill="#2C231E"/>
    <path d="M12.3787 180.085C11.5692 184.65 16.0782 194.13 25.1499 194.44C36.1168 194.814 43.1234 185.953 39.8592 171.492L23.4887 91.6928C21.54 82.1935 23.0027 77.0411 24.0433 73.9705C26.8194 65.7783 33.7552 62.3994 35.4438 65.0221C36.4078 66.5195 38.7388 73.5211 32.1034 86.0614C26.9283 95.8418 2.8505 108.667 1.0835 131.618C-0.446192 151.577 19.3344 166.317 36.4068 160.522C47.7416 156.675 53.5848 138.505 46.5689 129.133C28.054 104.399 -1.63946 142.252 27.1249 152.622C23.9971 150.023 21.8651 148.011 21.4681 145.551C17.6032 121.6 51.699 127.923 42.5122 150.645C38.7346 159.988 23.4759 161.796 14.7863 153.46C7.50695 146.478 4.27687 133.026 12.3775 123.37C23.3489 110.291 36.3025 98.5494 39.7429 80.6452C43.8114 59.4728 30.5281 42.9666 22.1303 63.7928C19.3125 70.7809 18.2628 77.796 20.961 91.239L37.3185 172.737C38.4895 178.571 37.7055 186.6 32.5498 190.29C29.9959 192.118 20.9584 193.376 18.7474 189.013" stroke="#2C231E" stroke-width="0.101028"/>
    <path d="M12.2544 180.77C12.2935 178.573 13.1434 176.482 14.6171 174.957C16.0908 173.432 18.0676 172.598 20.1127 172.638C22.1578 172.679 24.1036 173.591 25.5221 175.173C26.9406 176.755 27.7156 178.879 27.6765 181.076C27.6375 183.273 26.7876 185.364 25.3139 186.889C23.8402 188.414 21.8634 189.248 19.8183 189.207C17.7732 189.167 15.8273 188.255 14.4089 186.673C12.9904 185.091 12.2154 182.967 12.2544 180.77Z" fill="#2C231E" stroke="#2C231E" stroke-width="0.101028"/>
    <path d="M104.818 99.2911C206 -36 603.5 -14 718 62.4999" stroke="#2C231E"/>
    <path opacity="0.97" fill-rule="evenodd" clip-rule="evenodd" d="M525.376 82.5713C530.187 79.8757 532.751 74.9959 531.174 71.3251C529.492 67.4095 523.711 66.3044 518.271 68.8584C512.831 71.4125 509.781 76.6631 511.463 80.5787C513.145 84.4943 518.926 85.5994 524.366 83.0454C524.706 82.8858 525.055 82.751 525.376 82.5713Z" fill="#2C231E"/>
    <path d="M511.139 146.377L511.083 109.114L511.026 77.701L513.414 77.701L513.215 146.399L511.139 146.377Z" fill="#2C231E"/>
    <path opacity="0.97" fill-rule="evenodd" clip-rule="evenodd" d="M732.376 90.5713C737.187 87.8757 739.751 82.9959 738.174 79.3251C736.492 75.4095 730.711 74.3044 725.271 76.8584C719.831 79.4125 716.781 84.6631 718.463 88.5787C720.145 92.4943 725.926 93.5994 731.366 91.0454C731.706 90.8858 732.055 90.751 732.376 90.5713Z" fill="#2C231E"/>
    <path d="M718.139 154.377L718.083 117.114L718.026 85.701L720.414 85.701L720.215 154.399L718.139 154.377Z" fill="#2C231E"/>
    <path opacity="0.97" fill-rule="evenodd" clip-rule="evenodd" d="M109.376 130.38C114.187 127.685 116.751 122.805 115.174 119.134C113.492 115.219 107.711 114.114 102.271 116.668C96.8306 119.222 93.7806 124.472 95.4628 128.388C97.1451 132.303 102.926 133.408 108.366 130.854C108.706 130.695 109.055 130.56 109.376 130.38Z" fill="#2C231E"/>
    <path d="M95.1394 194.186L95.0826 156.923L95.0257 125.51L97.4141 125.51L97.215 194.208L95.1394 194.186Z" fill="#2C231E"/>
    <path opacity="0.97" fill-rule="evenodd" clip-rule="evenodd" d="M155.198 102.015C160.01 99.319 162.574 94.4392 160.996 90.7684C159.314 86.8528 153.534 85.7477 148.093 88.3017C142.653 90.8557 139.603 96.1064 141.285 100.022C142.967 103.938 148.748 105.043 154.188 102.489C154.528 102.329 154.877 102.194 155.198 102.015Z" fill="#2C231E"/>
    <path d="M140.962 186.208L140.905 128.557L140.848 97.1439L143.236 97.1439L143.037 186.23L140.962 186.208Z" fill="#2C231E"/>
    <path opacity="0.97" fill-rule="evenodd" clip-rule="evenodd" d="M201.02 82.3762C205.832 79.6806 208.396 74.8009 206.819 71.13C205.136 67.2144 199.356 66.1094 193.915 68.6634C188.475 71.2174 185.425 76.4681 187.107 80.3837C188.79 84.2993 194.57 85.4043 200.011 82.8503C200.351 82.6907 200.7 82.5559 201.02 82.3762Z" fill="#2C231E"/>
    <path d="M186.784 179.639L186.727 108.919L186.67 77.5059L189.059 77.5059L188.86 179.662L186.784 179.639Z" fill="#2C231E"/>
    <path d="M95 190.208L188.827 175.298V179.662L95 194.572V190.208Z" fill="#2C231E"/>
    <path d="M95 181.116L188.827 166.206V170.57L95 185.48V181.116Z" fill="#2C231E"/>
    <line x1="845" y1="84.7442" x2="845" y2="164.024" stroke="#2C231E" stroke-width="2"/>
    <line x1="254" y1="84.7443" x2="254" y2="164.024" stroke="#2C231E" stroke-width="2"/>
    <path d="M315.007 59.515C315.372 57.4849 316.987 56.0699 318.371 54.763C321.439 52.1991 325.096 50.2724 328.995 49.7031C330.143 49.6121 331.984 49.6003 332.179 51.1879C332.356 52.8646 331.06 54.1873 330.071 55.3128C327.536 57.8894 324.348 59.6813 321.036 60.8593C319.323 61.3464 317.325 61.9778 315.655 61.0041C315.204 60.6736 314.922 60.1001 315.007 59.515ZM319.4 64.245C323.717 64.6545 328.024 62.5581 330.981 59.3031C332.963 57.0666 334.439 53.6829 333.242 50.6348C332.351 48.1916 329.835 47.0009 327.512 46.8972C323.517 46.5772 319.624 48.5192 316.724 51.313C314.569 53.4698 312.839 56.7327 313.709 59.9649C314.336 62.3176 316.473 63.8662 318.687 64.1475C318.924 64.1873 319.162 64.2205 319.4 64.245Z" fill="#2C231E" stroke="#2C231E" stroke-width="0.400015"/>
    <path d="M313.292 142.907L313.231 90.7199L313.165 58.6897L315.73 61.0353L315.517 142.929L313.292 142.907Z" fill="#2C231E"/>
    <line x1="305" y1="65.3333" x2="338.458" y2="65.3333" stroke="#2C231E"/>
    <path d="M905.007 69.1106C905.372 67.0805 906.987 65.6655 908.371 64.3586C911.439 61.7947 915.096 59.868 918.995 59.2987C920.143 59.2077 921.984 59.1959 922.179 60.7835C922.356 62.4602 921.06 63.7829 920.071 64.9084C917.536 67.485 914.348 69.2769 911.036 70.4549C909.323 70.942 907.325 71.5734 905.655 70.5997C905.204 70.2692 904.922 69.6957 905.007 69.1106ZM909.4 73.8406C913.717 74.2501 918.024 72.1537 920.981 68.8987C922.963 66.6622 924.439 63.2785 923.242 60.2304C922.351 57.7872 919.835 56.5965 917.512 56.4928C913.517 56.1728 909.624 58.1148 906.724 60.9086C904.569 63.0653 902.839 66.3283 903.709 69.5605C904.336 71.9132 906.473 73.4618 908.687 73.743C908.924 73.7829 909.162 73.8161 909.4 73.8406Z" fill="#2C231E" stroke="#2C231E" stroke-width="0.400015"/>
    <path d="M903.292 152.503L903.231 100.316L903.165 68.2853L905.73 70.6309L905.517 152.524L903.292 152.503Z" fill="#2C231E"/>
    <line x1="895" y1="65.3333" x2="928.458" y2="65.3333" stroke="#2C231E"/>
</svg>