<svg width="1153" height="201" viewBox="0 0 1153 201" fill="none" xmlns="http://www.w3.org/2000/svg">
<path d="M8.4 195.907C8.00533 196.238 7.664 196.579 7.376 196.931C7.088 197.283 6.85333 197.646 6.672 198.019L6.384 198.019C6.01067 197.283 5.43467 196.579 4.656 195.907L4.656 195.347C5.01867 195.518 5.33867 195.688 5.616 195.859C5.88267 196.03 6.10667 196.195 6.288 196.355L6.768 196.355C6.93867 196.195 7.16267 196.03 7.44 195.859C7.70667 195.688 8.02667 195.518 8.4 195.347L8.4 195.907ZM6.864 196.435L6.192 196.435L6.192 186.947L6.864 186.947L6.864 196.435ZM12.24 173.886C12.24 174.377 12.1813 174.884 12.064 175.406C11.9573 175.918 11.8027 176.42 11.6 176.91C11.3867 177.401 11.1307 177.87 10.832 178.318L7.456 177.998L7.456 177.806L9.456 177.566C9.98933 177.513 10.448 177.326 10.832 177.006C11.2053 176.686 11.4933 176.249 11.696 175.694C11.8987 175.14 12 174.51 12 173.806C12 173.113 11.9093 172.526 11.728 172.046C11.5467 171.556 11.2853 171.182 10.944 170.926C10.592 170.66 10.176 170.526 9.696 170.526C9.23733 170.526 8.83733 170.644 8.496 170.878C8.15467 171.102 7.84 171.476 7.552 171.998C7.25333 172.521 6.95467 173.23 6.656 174.126C6.304 175.118 5.96267 175.908 5.632 176.494C5.29067 177.07 4.928 177.481 4.544 177.726C4.16 177.972 3.712 178.094 3.2 178.094C2.784 178.094 2.40533 178.004 2.064 177.822C1.72266 177.63 1.42933 177.358 1.184 177.006C0.938665 176.654 0.751998 176.228 0.623999 175.726C0.495998 175.214 0.431998 174.644 0.431998 174.014C0.431998 173.417 0.495998 172.862 0.623998 172.35C0.741331 171.838 0.906665 171.369 1.12 170.942C1.32267 170.516 1.55733 170.148 1.824 169.838L4.912 170.27L4.912 170.462L3.504 170.574C2.85333 170.638 2.32 170.814 1.904 171.102C1.488 171.38 1.17867 171.769 0.975999 172.27C0.773332 172.772 0.671999 173.374 0.671999 174.078C0.671999 174.761 0.757332 175.342 0.927998 175.822C1.088 176.302 1.328 176.67 1.648 176.926C1.95733 177.182 2.33067 177.31 2.768 177.31C3.20533 177.31 3.59467 177.193 3.936 176.958C4.26667 176.724 4.58133 176.334 4.88 175.79C5.168 175.246 5.472 174.505 5.792 173.566C6.03733 172.82 6.28267 172.196 6.528 171.694C6.77333 171.182 7.03467 170.772 7.312 170.462C7.57867 170.153 7.872 169.934 8.192 169.806C8.50133 169.668 8.85867 169.598 9.264 169.598C9.65867 169.598 10.016 169.668 10.336 169.806C10.6453 169.945 10.9173 170.142 11.152 170.398C11.3867 170.654 11.5893 170.958 11.76 171.31C11.92 171.662 12.0373 172.057 12.112 172.494C12.1973 172.932 12.24 173.396 12.24 173.886ZM9.84 158.19C10.3627 158.489 10.8053 158.862 11.168 159.31C11.52 159.748 11.7867 160.238 11.968 160.782C12.1493 161.326 12.24 161.908 12.24 162.526C12.24 163.284 12.112 163.972 11.856 164.59C11.5893 165.209 11.2053 165.742 10.704 166.19C10.192 166.638 9.57867 166.98 8.864 167.214C8.13867 167.438 7.31733 167.55 6.4 167.55C5.51466 167.55 4.70933 167.428 3.984 167.182C3.248 166.937 2.61866 166.585 2.096 166.126C1.56266 165.657 1.152 165.108 0.863998 164.478C0.575998 163.838 0.431998 163.129 0.431998 162.35C0.431998 161.732 0.495998 161.161 0.623998 160.638C0.741331 160.116 0.917331 159.646 1.152 159.23C1.38666 158.814 1.66933 158.457 2 158.158L5.92 158.958L5.92 159.23L3.632 159.166C2.94933 159.134 2.38933 159.236 1.952 159.47C1.51466 159.705 1.18933 160.073 0.975998 160.574C0.762664 161.076 0.655997 161.726 0.655998 162.526C0.655998 163.113 0.794664 163.657 1.072 164.158C1.33866 164.66 1.72266 165.086 2.224 165.438C2.71467 165.79 3.296 166.068 3.968 166.27C4.62933 166.462 5.35466 166.558 6.144 166.558C6.976 166.558 7.73333 166.462 8.416 166.27C9.088 166.068 9.67466 165.774 10.176 165.39C10.6667 165.006 11.0453 164.537 11.312 163.982C11.568 163.417 11.696 162.766 11.696 162.03C11.696 161.284 11.5253 160.59 11.184 159.95C10.8427 159.3 10.3573 158.766 9.728 158.35L9.84 158.19ZM12.24 146.997C12.24 147.242 12.1493 147.482 11.968 147.717C11.7867 147.941 11.4987 148.181 11.104 148.437C10.6987 148.693 10.1653 148.981 9.504 149.301C8.672 149.685 8.01066 150.08 7.52 150.485C7.01866 150.89 6.672 151.338 6.48 151.829L6.48 153.925L11.616 153.925L11.84 152.869L12 152.869L12 155.973L11.84 155.973L11.616 154.933L1.056 154.933L0.831998 155.973L0.671998 155.973L0.671998 151.013C0.671998 150.234 0.773331 149.573 0.975998 149.029C1.17866 148.485 1.48266 148.074 1.888 147.797C2.28266 147.52 2.784 147.381 3.392 147.381C3.91466 147.381 4.38933 147.525 4.816 147.813C5.232 148.09 5.57333 148.506 5.84 149.061C6.096 149.605 6.26666 150.272 6.352 151.061L6.448 151.061C6.49066 150.794 6.57066 150.544 6.688 150.309C6.80533 150.074 6.96533 149.856 7.168 149.653C7.37066 149.44 7.62133 149.242 7.92 149.061C8.208 148.869 8.54933 148.682 8.944 148.501C9.62666 148.181 10.1813 147.909 10.608 147.685C11.0347 147.45 11.3493 147.242 11.552 147.061C11.744 146.88 11.8453 146.72 11.856 146.581C11.8773 146.464 11.8667 146.341 11.824 146.213L11.984 146.213C12.0373 146.288 12.08 146.373 12.112 146.469C12.1547 146.565 12.1867 146.661 12.208 146.757C12.2293 146.842 12.24 146.922 12.24 146.997ZM6.192 152.037C6.192 151.472 6.128 150.965 6 150.517C5.872 150.058 5.68533 149.669 5.44 149.349C5.19466 149.018 4.90133 148.773 4.56 148.613C4.21866 148.442 3.83466 148.357 3.408 148.357C2.864 148.357 2.41066 148.474 2.048 148.709C1.67466 148.933 1.392 149.269 1.2 149.717C1.008 150.154 0.911998 150.693 0.911998 151.333C0.911998 151.888 0.922664 152.378 0.943997 152.805C0.965331 153.232 1.00266 153.605 1.056 153.925L6.096 153.925C6.128 153.733 6.15466 153.498 6.176 153.221C6.18666 152.944 6.192 152.549 6.192 152.037ZM0.431997 140.107C0.431997 139.36 0.559996 138.688 0.815996 138.091C1.072 137.483 1.45066 136.966 1.952 136.539C2.44266 136.112 3.05066 135.787 3.776 135.563C4.49066 135.328 5.32266 135.211 6.272 135.211C7.22133 135.211 8.06933 135.323 8.816 135.547C9.552 135.771 10.176 136.102 10.688 136.539C11.1893 136.966 11.5733 137.478 11.84 138.075C12.1067 138.672 12.24 139.35 12.24 140.107C12.24 140.864 12.1067 141.547 11.84 142.155C11.5733 142.752 11.1893 143.27 10.688 143.707C10.176 144.134 9.54666 144.459 8.8 144.683C8.05333 144.907 7.21066 145.019 6.272 145.019C5.35466 145.019 4.53866 144.907 3.824 144.683C3.09866 144.459 2.48533 144.134 1.984 143.707C1.48266 143.28 1.09866 142.763 0.831997 142.155C0.56533 141.547 0.431997 140.864 0.431997 140.107ZM0.655997 140.107C0.655997 140.726 0.778663 141.275 1.024 141.755C1.26933 142.235 1.632 142.64 2.112 142.971C2.58133 143.302 3.16266 143.558 3.856 143.739C4.54933 143.91 5.34933 143.995 6.256 143.995C7.184 143.995 8.00533 143.91 8.72 143.739C9.43466 143.558 10.0373 143.302 10.528 142.971C11.008 142.64 11.376 142.235 11.632 141.755C11.888 141.275 12.016 140.726 12.016 140.107C12.016 139.478 11.8933 138.928 11.648 138.459C11.392 137.979 11.0187 137.579 10.528 137.259C10.0373 136.928 9.43466 136.678 8.72 136.507C8.00533 136.336 7.184 136.251 6.256 136.251C5.34933 136.251 4.54933 136.336 3.856 136.507C3.152 136.678 2.56533 136.928 2.096 137.259C1.616 137.579 1.25866 137.979 1.024 138.459C0.778663 138.928 0.655997 139.478 0.655997 140.107ZM12 133.02L11.84 133.02L11.68 131.98L0.991997 131.98L0.831997 133.02L0.671997 133.02L0.671997 129.916L0.831997 129.916L0.991997 130.972L11.76 130.972L11.76 126.94C11.76 126.716 11.7013 126.529 11.584 126.38C11.456 126.22 11.2587 126.092 10.992 125.996C10.7253 125.889 10.3733 125.815 9.936 125.772L7.904 125.692L7.904 125.436L12 125.004L12 133.02ZM12 123.239L11.84 123.239L11.68 122.199L0.991996 122.199L0.831996 123.239L0.671997 123.239L0.671996 120.135L0.831996 120.135L0.991996 121.191L11.76 121.191L11.76 117.159C11.76 116.935 11.7013 116.748 11.584 116.599C11.456 116.439 11.2587 116.311 10.992 116.215C10.7253 116.108 10.3733 116.033 9.936 115.991L7.904 115.911L7.904 115.655L12 115.223L12 123.239ZM0.671996 103.565C0.671996 102.477 0.879995 101.554 1.296 100.797C1.71199 100.039 2.33599 99.4635 3.16799 99.0688C3.98933 98.6741 5.024 98.4768 6.272 98.4768C7.54133 98.4768 8.60266 98.6688 9.456 99.0528C10.2987 99.4368 10.9333 100.002 11.36 100.749C11.7867 101.495 12 102.413 12 103.501L12 108.317L11.84 108.317L11.616 107.277L1.03999 107.277L0.831996 108.317L0.671996 108.317L0.671996 103.565ZM0.927995 103.773C0.927995 104.199 0.938662 104.642 0.959995 105.101C0.981329 105.559 1.01333 105.949 1.056 106.269L11.44 106.269L11.76 105.949L11.76 103.709C11.76 102.29 11.296 101.234 10.368 100.541C9.44 99.8475 8.05866 99.5008 6.224 99.5008C5.06133 99.5008 4.09066 99.6608 3.31199 99.9808C2.52266 100.29 1.93066 100.759 1.53599 101.389C1.13066 102.018 0.927995 102.813 0.927995 103.773ZM0.431994 91.3415C0.431994 90.5949 0.559994 89.9229 0.815994 89.3255C1.07199 88.7175 1.45066 88.2002 1.95199 87.7735C2.44266 87.3469 3.05066 87.0215 3.776 86.7975C4.49066 86.5629 5.32266 86.4455 6.27199 86.4455C7.22133 86.4455 8.06933 86.5575 8.81599 86.7815C9.55199 87.0055 10.176 87.3362 10.688 87.7735C11.1893 88.2002 11.5733 88.7122 11.84 89.3095C12.1067 89.9069 12.24 90.5842 12.24 91.3415C12.24 92.0989 12.1067 92.7815 11.84 93.3895C11.5733 93.9869 11.1893 94.5042 10.688 94.9415C10.176 95.3682 9.54666 95.6935 8.8 95.9175C8.05333 96.1415 7.21066 96.2535 6.272 96.2535C5.35466 96.2535 4.53866 96.1415 3.82399 95.9175C3.09866 95.6935 2.48533 95.3682 1.98399 94.9415C1.48266 94.5149 1.09866 93.9975 0.831995 93.3895C0.565328 92.7815 0.431994 92.0989 0.431994 91.3415ZM0.655994 91.3415C0.655994 91.9602 0.778661 92.5095 1.02399 92.9895C1.26933 93.4695 1.63199 93.8749 2.11199 94.2055C2.58133 94.5362 3.16266 94.7922 3.856 94.9735C4.54933 95.1442 5.34933 95.2295 6.25599 95.2295C7.184 95.2295 8.00533 95.1442 8.72 94.9735C9.43466 94.7922 10.0373 94.5362 10.528 94.2055C11.008 93.8749 11.376 93.4695 11.632 92.9895C11.888 92.5095 12.016 91.9602 12.016 91.3415C12.016 90.7122 11.8933 90.1629 11.648 89.6935C11.392 89.2135 11.0187 88.8135 10.528 88.4935C10.0373 88.1629 9.43466 87.9122 8.71999 87.7415C8.00533 87.5709 7.18399 87.4855 6.25599 87.4855C5.34933 87.4855 4.54933 87.5709 3.856 87.7415C3.15199 87.9122 2.56533 88.1629 2.09599 88.4935C1.61599 88.8135 1.25866 89.2135 1.02399 89.6935C0.778661 90.1629 0.655994 90.7122 0.655994 91.3415ZM12 73.9974L3.88799 77.0694L2.54399 76.5254L11.056 73.2934L11.056 73.1334L3.71199 70.3814C3.42399 70.2747 3.16266 70.1947 2.92799 70.1414C2.69333 70.0881 2.47999 70.0614 2.28799 70.0614C2.02133 70.0614 1.79199 70.1201 1.59999 70.2374C1.39733 70.3547 1.23199 70.5361 1.10399 70.7814C0.975994 71.0267 0.885327 71.3521 0.831994 71.7574L0.671994 71.7574L0.671994 68.0614L0.831994 68.0614L1.07199 69.1174L12 73.2614L12 73.9974ZM12 80.6854L1.05599 84.8614L0.831995 85.9014L0.671995 85.9014L0.671995 82.6374L0.831995 82.6374L1.03999 83.7894L11.056 79.9974L11.056 79.8374L3.72799 77.0854C3.45066 76.9787 3.18399 76.8987 2.92799 76.8454C2.67199 76.7921 2.44799 76.7654 2.25599 76.7654C1.83999 76.7654 1.51999 76.8987 1.29599 77.1654C1.06133 77.4214 0.906661 77.8534 0.831994 78.4614L0.671995 78.4614L0.671994 74.7494L0.831994 74.7494L1.05599 75.8054L12 79.9654L12 80.6854ZM12 66.8964L11.84 66.8964L11.616 65.7764L2.04799 65.7764C1.81333 65.7764 1.58399 65.8831 1.35999 66.0964C1.12533 66.3097 0.949327 66.5764 0.831994 66.8964L0.671994 66.8964L0.671994 65.3444L10.624 57.3604L10.624 57.1684L3.50399 57.1684C3.20533 57.1684 2.93333 57.1951 2.68799 57.2484C2.43199 57.3017 2.20266 57.3924 1.99999 57.5204C1.78666 57.6377 1.60533 57.7924 1.45599 57.9844C1.29599 58.1657 1.16799 58.3897 1.07199 58.6564C0.965327 58.9124 0.885327 59.2111 0.831994 59.5524L0.671994 59.5524L0.671994 55.7604L0.831993 55.7604L1.05599 56.9284L12 56.9284L12 57.4884L2.23999 65.3604L2.23999 65.5364L8.97599 65.5364C9.28533 65.5364 9.57333 65.5097 9.83999 65.4564C10.096 65.3924 10.3307 65.3017 10.544 65.1844C10.7573 65.0564 10.9493 64.8964 11.12 64.7044C11.28 64.5017 11.424 64.2617 11.552 63.9844C11.6693 63.7071 11.7653 63.3817 11.84 63.0084L12 63.0084L12 66.8964Z" fill="#2C231E"/>
<line x1="38" y1="163.5" x2="1152" y2="163.5" stroke="#2C231E"/>
<line x1="38" y1="143.5" x2="1152" y2="143.5" stroke="#2C231E"/>
<line x1="38" y1="124.5" x2="1152" y2="124.5" stroke="#2C231E"/>
<line x1="38" y1="104.5" x2="1152" y2="104.5" stroke="#2C231E"/>
<line x1="38" y1="84.5" x2="1152" y2="84.5" stroke="#2C231E"/>
<rect x="1152.11" y="164" width="12" height="79" transform="rotate(-180 1152.11 164)" fill="#2C231E"/>
<line x1="1130.61" y1="164" x2="1130.61" y2="85" stroke="#2C231E"/>
<circle cx="1118.44" cy="137.667" r="3.43477" transform="rotate(-180 1118.44 137.667)" fill="#2C231E"/>
<circle cx="1118.43" cy="111.333" r="3.43477" transform="rotate(-180 1118.43 111.333)" fill="#2C231E"/>
<path d="M49.3787 180.085C48.5692 184.65 53.0782 194.13 62.1499 194.44C73.1168 194.814 80.1234 185.953 76.8592 171.492L60.4887 91.6928C58.54 82.1935 60.0027 77.0411 61.0433 73.9705C63.8194 65.7783 70.7552 62.3994 72.4438 65.0221C73.4078 66.5195 75.7388 73.5211 69.1034 86.0614C63.9283 95.8418 39.8505 108.667 38.0835 131.618C36.5538 151.577 56.3344 166.317 73.4068 160.522C84.7416 156.675 90.5848 138.505 83.5689 129.133C65.054 104.399 35.3605 142.252 64.1249 152.622C60.9971 150.023 58.8651 148.011 58.4681 145.551C54.6032 121.6 88.699 127.923 79.5122 150.645C75.7346 159.988 60.4759 161.796 51.7863 153.46C44.507 146.478 41.2769 133.026 49.3775 123.37C60.3489 110.291 73.3025 98.5494 76.7429 80.6452C80.8114 59.4728 67.5281 42.9666 59.1303 63.7928C56.3125 70.7809 55.2628 77.796 57.961 91.239L74.3185 172.737C75.4895 178.571 74.7055 186.6 69.5498 190.29C66.9959 192.118 57.9584 193.376 55.7474 189.013" fill="#2C231E"/>
<path d="M49.3787 180.085C48.5692 184.65 53.0782 194.13 62.1499 194.44C73.1168 194.814 80.1234 185.953 76.8592 171.492L60.4887 91.6928C58.54 82.1935 60.0027 77.0411 61.0433 73.9705C63.8194 65.7783 70.7552 62.3994 72.4438 65.0221C73.4078 66.5195 75.7388 73.5211 69.1034 86.0614C63.9283 95.8418 39.8505 108.667 38.0835 131.618C36.5538 151.577 56.3344 166.317 73.4068 160.522C84.7416 156.675 90.5848 138.505 83.5689 129.133C65.054 104.399 35.3605 142.252 64.1249 152.622C60.9971 150.023 58.8651 148.011 58.4681 145.551C54.6032 121.6 88.699 127.923 79.5122 150.645C75.7346 159.988 60.4759 161.796 51.7863 153.46C44.507 146.478 41.2769 133.026 49.3775 123.37C60.3489 110.291 73.3025 98.5494 76.7429 80.6452C80.8114 59.4728 67.5281 42.9666 59.1303 63.7928C56.3125 70.7809 55.2628 77.796 57.961 91.239L74.3185 172.737C75.4895 178.571 74.7055 186.6 69.5498 190.29C66.9959 192.118 57.9584 193.376 55.7474 189.013" stroke="#2C231E" stroke-width="0.101028"/>
<path d="M49.2544 180.77C49.2935 178.573 50.1434 176.482 51.6171 174.957C53.0908 173.432 55.0676 172.598 57.1127 172.638C59.1578 172.679 61.1036 173.591 62.5221 175.173C63.9406 176.755 64.7156 178.879 64.6765 181.076C64.6375 183.273 63.7876 185.364 62.3139 186.889C60.8402 188.414 58.8634 189.248 56.8183 189.207C54.7732 189.167 52.8273 188.255 51.4089 186.673C49.9904 185.091 49.2154 182.967 49.2544 180.77Z" fill="#2C231E" stroke="#2C231E" stroke-width="0.101028"/>
<line x1="882" y1="84.7442" x2="882" y2="164.024" stroke="#2C231E" stroke-width="2"/>
<path d="M141.818 99.2911C243 -36 640.5 -14 755 62.4999" stroke="#2C231E"/>
<path opacity="0.97" fill-rule="evenodd" clip-rule="evenodd" d="M562.376 82.5713C567.187 79.8757 569.751 74.9959 568.174 71.3251C566.492 67.4095 560.711 66.3044 555.271 68.8584C549.831 71.4125 546.781 76.6631 548.463 80.5787C550.145 84.4943 555.926 85.5994 561.366 83.0454C561.706 82.8858 562.055 82.751 562.376 82.5713Z" fill="#2C231E"/>
<path d="M548.139 146.377L548.083 109.114L548.026 77.701L550.414 77.701L550.215 146.399L548.139 146.377Z" fill="#2C231E"/>
<path opacity="0.97" fill-rule="evenodd" clip-rule="evenodd" d="M769.376 90.5713C774.187 87.8757 776.751 82.9959 775.174 79.3251C773.492 75.4095 767.711 74.3044 762.271 76.8584C756.831 79.4125 753.781 84.6631 755.463 88.5787C757.145 92.4943 762.926 93.5994 768.366 91.0454C768.706 90.8858 769.055 90.751 769.376 90.5713Z" fill="#2C231E"/>
<path d="M755.139 154.377L755.083 117.114L755.026 85.701L757.414 85.701L757.215 154.399L755.139 154.377Z" fill="#2C231E"/>
<path opacity="0.97" fill-rule="evenodd" clip-rule="evenodd" d="M146.376 130.38C151.187 127.685 153.751 122.805 152.174 119.134C150.492 115.219 144.711 114.113 139.271 116.667C133.831 119.221 130.781 124.472 132.463 128.388C134.145 132.303 139.926 133.408 145.366 130.854C145.706 130.695 146.055 130.56 146.376 130.38Z" fill="#2C231E"/>
<path d="M132.139 194.186L132.083 156.923L132.026 125.51L134.414 125.51L134.215 194.208L132.139 194.186Z" fill="#2C231E"/>
<path opacity="0.97" fill-rule="evenodd" clip-rule="evenodd" d="M192.198 102.015C197.01 99.319 199.574 94.4392 197.996 90.7684C196.314 86.8528 190.534 85.7477 185.093 88.3017C179.653 90.8557 176.603 96.1064 178.285 100.022C179.967 103.938 185.748 105.043 191.188 102.489C191.528 102.329 191.877 102.194 192.198 102.015Z" fill="#2C231E"/>
<path d="M177.962 186.208L177.905 128.557L177.848 97.1439L180.236 97.1439L180.037 186.23L177.962 186.208Z" fill="#2C231E"/>
<path opacity="0.97" fill-rule="evenodd" clip-rule="evenodd" d="M238.02 82.3762C242.832 79.6806 245.396 74.8009 243.819 71.13C242.136 67.2144 236.356 66.1094 230.915 68.6634C225.475 71.2174 222.425 76.4681 224.107 80.3837C225.79 84.2993 231.57 85.4043 237.011 82.8503C237.351 82.6907 237.7 82.5559 238.02 82.3762Z" fill="#2C231E"/>
<path d="M223.784 179.639L223.727 108.919L223.67 77.5059L226.059 77.5059L225.86 179.662L223.784 179.639Z" fill="#2C231E"/>
<path d="M132 190.208L225.827 175.298V179.662L132 194.572V190.208Z" fill="#2C231E"/>
<path d="M132 181.116L225.827 166.206V170.57L132 185.48V181.116Z" fill="#2C231E"/>
<line x1="291" y1="84.7443" x2="291" y2="164.024" stroke="#2C231E" stroke-width="2"/>
<path d="M352.007 59.515C352.372 57.4849 353.987 56.0699 355.371 54.763C358.439 52.1991 362.096 50.2724 365.995 49.7031C367.143 49.6121 368.984 49.6003 369.179 51.1879C369.356 52.8646 368.06 54.1873 367.071 55.3128C364.536 57.8894 361.348 59.6813 358.036 60.8593C356.323 61.3464 354.325 61.9778 352.655 61.0041C352.204 60.6736 351.922 60.1001 352.007 59.515ZM356.4 64.245C360.717 64.6545 365.024 62.5581 367.981 59.3031C369.963 57.0666 371.439 53.6829 370.242 50.6348C369.351 48.1916 366.835 47.0009 364.512 46.8972C360.517 46.5772 356.624 48.5192 353.724 51.313C351.569 53.4698 349.839 56.7327 350.709 59.9649C351.336 62.3176 353.473 63.8662 355.687 64.1475C355.924 64.1873 356.162 64.2205 356.4 64.245Z" fill="#2C231E" stroke="#2C231E" stroke-width="0.400015"/>
<path d="M350.292 142.907L350.231 90.7199L350.165 58.6896L352.73 61.0352L352.517 142.929L350.292 142.907Z" fill="#2C231E"/>
<line x1="342" y1="65.3333" x2="375.458" y2="65.3333" stroke="#2C231E"/>
<path d="M942.007 69.1106C942.372 67.0805 943.987 65.6655 945.371 64.3586C948.439 61.7947 952.096 59.868 955.995 59.2987C957.143 59.2077 958.984 59.1959 959.179 60.7835C959.356 62.4602 958.06 63.7829 957.071 64.9084C954.536 67.485 951.348 69.2769 948.036 70.4549C946.323 70.942 944.325 71.5734 942.655 70.5997C942.204 70.2692 941.922 69.6957 942.007 69.1106ZM946.4 73.8406C950.717 74.2501 955.024 72.1537 957.981 68.8987C959.963 66.6622 961.439 63.2785 960.242 60.2304C959.351 57.7872 956.835 56.5965 954.512 56.4928C950.517 56.1728 946.624 58.1148 943.724 60.9086C941.569 63.0653 939.839 66.3283 940.709 69.5605C941.336 71.9132 943.473 73.4618 945.687 73.743C945.924 73.7829 946.162 73.8161 946.4 73.8406Z" fill="#2C231E" stroke="#2C231E" stroke-width="0.400015"/>
<path d="M940.292 152.503L940.231 100.315L940.165 68.2852L942.73 70.6308L942.517 152.524L940.292 152.503Z" fill="#2C231E"/>
<line x1="932" y1="65.3333" x2="965.458" y2="65.3333" stroke="#2C231E"/>
</svg>
