<svg width="1134" height="181" viewBox="0 0 1134 181" fill="none" xmlns="http://www.w3.org/2000/svg">
    <path d="M270.479 84.808C335.999 -19.9998 767.999 -20.0002 841.999 45.9998" stroke="#2C231E"/>
    <line x1="1" y1="149.041" x2="1134" y2="149.041" stroke="#2C231E"/>
    <line x1="1" y1="129.403" x2="1134" y2="129.403" stroke="#2C231E"/>
    <line x1="1" y1="109.765" x2="1134" y2="109.765" stroke="#2C231E"/>
    <line x1="1" y1="90.1265" x2="1134" y2="90.1265" stroke="#2C231E"/>
    <line x1="1" y1="70.4883" x2="1134" y2="70.4883" stroke="#2C231E"/>
    <path d="M12.3787 165.602C11.5692 170.167 16.0782 179.647 25.1499 179.957C36.1168 180.331 43.1234 171.47 39.8592 157.009L23.4887 77.2099C21.54 67.7105 23.0027 62.5581 24.0433 59.4875C26.8194 51.2953 33.7552 47.9164 35.4438 50.5391C36.4078 52.0365 38.7388 59.0381 32.1034 71.5784C26.9283 81.3588 2.8505 94.1839 1.0835 117.135C-0.446192 137.094 19.3344 151.834 36.4068 146.039C47.7416 142.192 53.5848 124.022 46.5689 114.65C28.054 89.9161 -1.63946 127.769 27.1249 138.139C23.9971 135.54 21.8651 133.528 21.4681 131.068C17.6032 107.117 51.699 113.44 42.5122 136.162C38.7346 145.505 23.4759 147.313 14.7863 138.977C7.50695 131.995 4.27687 118.543 12.3775 108.887C23.3489 95.8076 36.3025 84.0665 39.7429 66.1622C43.8114 44.9898 30.5281 28.4836 22.1303 49.3098C19.3125 56.298 18.2628 63.3131 20.961 76.756L37.3185 158.254C38.4895 164.088 37.7055 172.117 32.5498 175.807C29.9959 177.635 20.9584 178.893 18.7474 174.53"
          fill="#2C231E"/>
    <path d="M12.3787 165.602C11.5692 170.167 16.0782 179.647 25.1499 179.957C36.1168 180.331 43.1234 171.47 39.8592 157.009L23.4887 77.2099C21.54 67.7105 23.0027 62.5581 24.0433 59.4875C26.8194 51.2953 33.7552 47.9164 35.4438 50.5391C36.4078 52.0365 38.7388 59.0381 32.1034 71.5784C26.9283 81.3588 2.8505 94.1839 1.0835 117.135C-0.446192 137.094 19.3344 151.834 36.4068 146.039C47.7416 142.192 53.5848 124.022 46.5689 114.65C28.054 89.9161 -1.63946 127.769 27.1249 138.139C23.9971 135.54 21.8651 133.528 21.4681 131.068C17.6032 107.117 51.699 113.44 42.5122 136.162C38.7346 145.505 23.4759 147.313 14.7863 138.977C7.50695 131.995 4.27687 118.543 12.3775 108.887C23.3489 95.8076 36.3025 84.0665 39.7429 66.1622C43.8114 44.9898 30.5281 28.4836 22.1303 49.3098C19.3125 56.298 18.2628 63.3131 20.961 76.756L37.3185 158.254C38.4895 164.088 37.7055 172.117 32.5498 175.807C29.9959 177.635 20.9584 178.893 18.7474 174.53"
          stroke="#2C231E" stroke-width="0.101028"/>
    <path d="M12.2544 166.287C12.2935 164.09 13.1434 161.999 14.6171 160.474C16.0908 158.949 18.0676 158.115 20.1127 158.156C22.1578 158.196 24.1036 159.108 25.5221 160.69C26.9406 162.272 27.7156 164.396 27.6765 166.593C27.6375 168.79 26.7876 170.881 25.3139 172.406C23.8402 173.931 21.8634 174.765 19.8183 174.725C17.7732 174.684 15.8273 173.772 14.4089 172.19C12.9904 170.608 12.2154 168.484 12.2544 166.287Z"
          fill="#2C231E" stroke="#2C231E" stroke-width="0.101028"/>
    <path d="M455.434 45.1631C455.814 43.1093 457.431 41.663 458.817 40.3284C461.887 37.7063 465.537 35.7211 469.415 35.1042C470.557 34.9998 472.385 34.968 472.565 36.569C472.727 38.2602 471.427 39.6098 470.436 40.757C467.895 43.3862 464.712 45.2301 461.412 46.4554C459.706 46.9658 457.715 47.6249 456.065 46.6598C455.62 46.331 455.345 45.7549 455.434 45.1631ZM459.757 49.8918C464.042 50.2587 468.338 48.0952 471.305 44.7764C473.293 42.4966 474.789 39.064 473.626 35.999C472.763 33.5416 470.273 32.3665 467.966 32.2869C464.001 32.0069 460.117 34.0101 457.211 36.8625C455.051 39.0636 453.305 42.3771 454.141 45.6315C454.744 48.0004 456.853 49.541 459.049 49.8011C459.284 49.8388 459.52 49.8697 459.757 49.8918Z"
          fill="#2C231E" stroke="#2C231E" stroke-width="0.400015"/>
    <path d="M453.696 128.424L453.636 76.2369L453.57 44.2067L456.135 46.5523L455.921 128.446L453.696 128.424Z"
          fill="#2C231E"/>
    <path opacity="0.97" fill-rule="evenodd" clip-rule="evenodd"
          d="M738.376 68.0883C743.187 65.3927 745.751 60.513 744.174 56.8421C742.492 52.9265 736.711 51.8215 731.271 54.3755C725.831 56.9295 722.781 62.1802 724.463 66.0958C726.145 70.0114 731.926 71.1164 737.366 68.5624C737.706 68.4028 738.055 68.268 738.376 68.0883Z"
          fill="#2C231E"/>
    <path d="M724.139 131.894L724.083 94.6308L724.026 63.2181L726.414 63.2181L726.215 131.916L724.139 131.894Z"
          fill="#2C231E"/>
    <path opacity="0.97" fill-rule="evenodd" clip-rule="evenodd"
          d="M849.376 76.0883C854.187 73.3927 856.751 68.513 855.174 64.8421C853.492 60.9265 847.711 59.8215 842.271 62.3755C836.831 64.9295 833.781 70.1802 835.463 74.0958C837.145 78.0114 842.926 79.1164 848.366 76.5624C848.706 76.4028 849.055 76.268 849.376 76.0883Z"
          fill="#2C231E"/>
    <path d="M835.139 139.894L835.083 102.631L835.026 71.2181L837.414 71.2181L837.215 139.916L835.139 139.894Z"
          fill="#2C231E"/>
    <path opacity="0.97" fill-rule="evenodd" clip-rule="evenodd"
          d="M275.036 115.897C279.848 113.202 282.411 108.322 280.834 104.651C279.152 100.736 273.371 99.6305 267.931 102.185C262.491 104.739 259.441 109.989 261.123 113.905C262.805 117.82 268.586 118.925 274.026 116.371C274.366 116.212 274.715 116.077 275.036 115.897Z"
          fill="#2C231E"/>
    <path d="M260.8 179.703L260.743 142.44L260.686 111.027L263.074 111.027L262.875 179.725L260.8 179.703Z"
          fill="#2C231E"/>
    <path opacity="0.97" fill-rule="evenodd" clip-rule="evenodd"
          d="M320.858 87.5316C325.67 84.836 328.234 79.9563 326.657 76.2854C324.974 72.3698 319.194 71.2648 313.753 73.8188C308.313 76.3728 305.263 81.6235 306.945 85.5391C308.627 89.4546 314.408 90.5597 319.848 88.0057C320.188 87.8461 320.537 87.7113 320.858 87.5316Z"
          fill="#2C231E"/>
    <path d="M306.622 171.725L306.565 114.074L306.508 82.6609L308.896 82.6609L308.697 171.747L306.622 171.725Z"
          fill="#2C231E"/>
    <path opacity="0.97" fill-rule="evenodd" clip-rule="evenodd"
          d="M366.681 67.8933C371.492 65.1976 374.056 60.3179 372.479 56.647C370.797 52.7314 365.016 51.6264 359.576 54.1804C354.135 56.7344 351.085 61.9851 352.767 65.9007C354.45 69.8163 360.23 70.9213 365.671 68.3673C366.011 68.2077 366.36 68.073 366.681 67.8933Z"
          fill="#2C231E"/>
    <path d="M352.444 165.156L352.387 94.4357L352.33 63.0229L354.719 63.0229L354.52 165.179L352.444 165.156Z"
          fill="#2C231E"/>
    <path d="M260.66 175.725L354.487 160.815V165.179L260.66 180.089V175.725Z" fill="#2C231E"/>
    <path d="M260.66 166.633L354.487 151.723V156.087L260.66 170.998V166.633Z" fill="#2C231E"/>
    <line x1="428.949" y1="70.2612" x2="428.949" y2="149.541" stroke="#2C231E" stroke-width="2"/>
    <line x1="1001" y1="70.2612" x2="1001" y2="149.541" stroke="#2C231E" stroke-width="2"/>
    <line x1="445.404" y1="50.8502" x2="478.862" y2="50.8502" stroke="#2C231E"/>
</svg>
