<svg viewBox="0 0 8 14" fill="none" xmlns="http://www.w3.org/2000/svg">
<path fill-rule="evenodd" clip-rule="evenodd" d="M1.41518 8.4144C0.633754 8.4144 0.000282512 7.78101 0.000282546 6.99968C0.00028258 6.21835 0.633754 5.58496 1.41518 5.58496C2.19661 5.58496 2.83008 6.21835 2.83008 6.99968C2.83008 7.78101 2.19661 8.4144 1.41518 8.4144Z" fill="#2C231E"/>
<path d="M0.111264 0.000869704C4.13255 0.596541 7.70703 3.42598 7.70703 7C7.70703 10.574 4.13255 13.4035 0.111263 13.9991C-0.0376737 14.0289 -0.0376737 13.2843 0.111263 13.2545C2.94106 12.51 5.62192 10.574 5.62192 7C5.62192 3.42598 2.94106 1.49005 0.111264 0.745458C-0.0376731 0.715674 -0.0376731 -0.0289138 0.111264 0.000869704Z" fill="#2C231E"/>
</svg>
