<svg width="764" height="136" viewBox="0 0 764 136" fill="none" xmlns="http://www.w3.org/2000/svg">
<path d="M5.525 132.854C5.25367 133.081 5.019 133.316 4.821 133.558C4.623 133.8 4.46167 134.049 4.337 134.306L4.139 134.306C3.88233 133.8 3.48633 133.316 2.951 132.854L2.951 132.469C3.20033 132.586 3.42033 132.704 3.611 132.821C3.79433 132.938 3.94833 133.052 4.073 133.162L4.403 133.162C4.52033 133.052 4.67433 132.938 4.865 132.821C5.04833 132.704 5.26833 132.586 5.525 132.469L5.525 132.854ZM4.469 133.217L4.007 133.217L4.007 126.694L4.469 126.694L4.469 133.217ZM8.165 117.715C8.165 118.052 8.12467 118.4 8.044 118.76C7.97067 119.112 7.86433 119.456 7.725 119.794C7.57833 120.131 7.40233 120.454 7.197 120.762L4.876 120.542L4.876 120.41L6.251 120.245C6.61767 120.208 6.933 120.08 7.197 119.86C7.45367 119.64 7.65167 119.339 7.791 118.958C7.93033 118.576 8 118.144 8 117.66C8 117.183 7.93767 116.78 7.813 116.45C7.68833 116.112 7.50867 115.856 7.274 115.68C7.032 115.496 6.746 115.405 6.416 115.405C6.10067 115.405 5.82567 115.485 5.591 115.647C5.35633 115.801 5.14 116.057 4.942 116.417C4.73667 116.776 4.53133 117.264 4.326 117.88C4.084 118.562 3.84933 119.104 3.622 119.508C3.38733 119.904 3.138 120.186 2.874 120.355C2.61 120.523 2.302 120.608 1.95 120.608C1.664 120.608 1.40367 120.545 1.169 120.421C0.934332 120.289 0.732665 120.102 0.563999 119.86C0.395332 119.618 0.266999 119.324 0.178999 118.98C0.0909988 118.628 0.0469987 118.235 0.0469987 117.803C0.0469986 117.392 0.0909987 117.011 0.178999 116.659C0.259665 116.307 0.373332 115.984 0.519999 115.691C0.659332 115.397 0.820666 115.144 1.004 114.932L3.127 115.229L3.127 115.361L2.159 115.438C1.71167 115.482 1.345 115.603 1.059 115.801C0.772999 115.991 0.560332 116.259 0.420999 116.604C0.281666 116.948 0.211999 117.363 0.211999 117.847C0.211999 118.316 0.270666 118.716 0.387999 119.046C0.497999 119.376 0.662999 119.629 0.882999 119.805C1.09567 119.981 1.35233 120.069 1.653 120.069C1.95367 120.069 2.22133 119.988 2.456 119.827C2.68333 119.665 2.89967 119.398 3.105 119.024C3.303 118.65 3.512 118.14 3.732 117.495C3.90067 116.981 4.06933 116.552 4.238 116.208C4.40667 115.856 4.58633 115.573 4.777 115.361C4.96033 115.148 5.162 114.998 5.382 114.91C5.59467 114.814 5.84033 114.767 6.119 114.767C6.39033 114.767 6.636 114.814 6.856 114.91C7.06867 115.005 7.25567 115.141 7.417 115.317C7.57833 115.493 7.71767 115.702 7.835 115.944C7.945 116.186 8.02567 116.457 8.077 116.758C8.13567 117.058 8.165 117.377 8.165 117.715ZM6.515 106.924C6.87433 107.129 7.17867 107.386 7.428 107.694C7.67 107.995 7.85333 108.332 7.978 108.706C8.10267 109.08 8.165 109.48 8.165 109.905C8.165 110.426 8.077 110.899 7.901 111.324C7.71767 111.749 7.45367 112.116 7.109 112.424C6.757 112.732 6.33533 112.967 5.844 113.128C5.34533 113.282 4.78067 113.359 4.15 113.359C3.54133 113.359 2.98767 113.275 2.489 113.106C1.983 112.937 1.55033 112.695 1.191 112.38C0.824332 112.057 0.541999 111.68 0.343998 111.247C0.145998 110.807 0.0469983 110.319 0.0469983 109.784C0.0469983 109.359 0.0909984 108.966 0.178999 108.607C0.259665 108.248 0.380665 107.925 0.541998 107.639C0.703332 107.353 0.897665 107.107 1.125 106.902L3.82 107.452L3.82 107.639L2.247 107.595C1.77767 107.573 1.39267 107.643 1.092 107.804C0.791332 107.965 0.567665 108.218 0.420999 108.563C0.274332 108.908 0.200998 109.355 0.200998 109.905C0.200998 110.308 0.296332 110.682 0.486999 111.027C0.670332 111.372 0.934332 111.665 1.279 111.907C1.61633 112.149 2.016 112.34 2.478 112.479C2.93267 112.611 3.43133 112.677 3.974 112.677C4.546 112.677 5.06667 112.611 5.536 112.479C5.998 112.34 6.40133 112.138 6.746 111.874C7.08333 111.61 7.34367 111.287 7.527 110.906C7.703 110.517 7.791 110.07 7.791 109.564C7.791 109.051 7.67367 108.574 7.439 108.134C7.20433 107.687 6.87067 107.32 6.438 107.034L6.515 106.924ZM8.165 99.2285C8.165 99.3971 8.10267 99.5621 7.978 99.7235C7.85333 99.8775 7.65533 100.042 7.384 100.218C7.10533 100.394 6.73867 100.592 6.284 100.812C5.712 101.076 5.25733 101.348 4.92 101.626C4.57533 101.905 4.337 102.213 4.205 102.55L4.205 103.991L7.736 103.991L7.89 103.265L8 103.265L8 105.399L7.89 105.399L7.736 104.684L0.475998 104.684L0.321999 105.399L0.211999 105.399L0.211998 101.989C0.211998 101.454 0.281665 100.999 0.420998 100.625C0.560332 100.251 0.769332 99.9691 1.048 99.7785C1.31933 99.5878 1.664 99.4925 2.082 99.4925C2.44133 99.4925 2.76766 99.5915 3.061 99.7895C3.347 99.9801 3.58166 100.266 3.765 100.647C3.941 101.021 4.05833 101.48 4.117 102.022L4.183 102.022C4.21233 101.839 4.26733 101.667 4.348 101.505C4.42867 101.344 4.53867 101.194 4.678 101.054C4.81733 100.908 4.98966 100.772 5.195 100.647C5.393 100.515 5.62766 100.387 5.899 100.262C6.36833 100.042 6.74967 99.8555 7.043 99.7015C7.33633 99.5401 7.55267 99.3971 7.692 99.2725C7.824 99.1478 7.89367 99.0378 7.901 98.9425C7.91567 98.8618 7.90833 98.7775 7.879 98.6895L7.989 98.6895C8.02567 98.7408 8.055 98.7995 8.077 98.8655C8.10633 98.9315 8.12833 98.9975 8.143 99.0635C8.15767 99.1221 8.165 99.1771 8.165 99.2285ZM4.007 102.693C4.007 102.305 3.963 101.956 3.875 101.648C3.787 101.333 3.65866 101.065 3.49 100.845C3.32133 100.618 3.11966 100.449 2.885 100.339C2.65033 100.222 2.38633 100.163 2.093 100.163C1.719 100.163 1.40733 100.244 1.158 100.405C0.901332 100.559 0.706998 100.79 0.574998 101.098C0.442998 101.399 0.376998 101.769 0.376998 102.209C0.376998 102.591 0.384332 102.928 0.398998 103.221C0.413665 103.515 0.439332 103.771 0.475998 103.991L3.941 103.991C3.963 103.859 3.98133 103.698 3.996 103.507C4.00333 103.317 4.007 103.045 4.007 102.693ZM0.0469976 94.4917C0.0469976 93.9783 0.134998 93.5163 0.310997 93.1057C0.486998 92.6877 0.747331 92.332 1.092 92.0387C1.42933 91.7453 1.84733 91.5217 2.346 91.3677C2.83733 91.2063 3.40933 91.1257 4.062 91.1257C4.71466 91.1257 5.29766 91.2027 5.811 91.3567C6.317 91.5107 6.746 91.738 7.098 92.0387C7.44266 92.332 7.70666 92.684 7.89 93.0947C8.07333 93.5053 8.165 93.971 8.165 94.4917C8.165 95.0123 8.07333 95.4817 7.89 95.8997C7.70666 96.3103 7.44266 96.666 7.098 96.9667C6.746 97.26 6.31333 97.4837 5.8 97.6377C5.28666 97.7917 4.70733 97.8687 4.062 97.8687C3.43133 97.8687 2.87033 97.7917 2.379 97.6377C1.88033 97.4837 1.45866 97.26 1.114 96.9667C0.769331 96.6733 0.505331 96.3177 0.321998 95.8997C0.138664 95.4817 0.0469977 95.0123 0.0469976 94.4917ZM0.200998 94.4917C0.200998 94.917 0.285331 95.2947 0.453998 95.6247C0.622664 95.9547 0.871998 96.2333 1.202 96.4607C1.52466 96.688 1.92433 96.864 2.401 96.9887C2.87766 97.106 3.42766 97.1647 4.051 97.1647C4.689 97.1647 5.25366 97.106 5.745 96.9887C6.23633 96.864 6.65066 96.688 6.988 96.4607C7.318 96.2333 7.571 95.9547 7.747 95.6247C7.923 95.2947 8.011 94.917 8.011 94.4917C8.011 94.059 7.92666 93.6813 7.758 93.3587C7.582 93.0287 7.32533 92.7537 6.988 92.5337C6.65066 92.3063 6.23633 92.134 5.745 92.0167C5.25366 91.8993 4.689 91.8407 4.051 91.8407C3.42766 91.8407 2.87766 91.8993 2.401 92.0167C1.917 92.134 1.51366 92.3063 1.191 92.5337C0.860998 92.7537 0.615331 93.0287 0.453998 93.3587C0.285331 93.6813 0.200998 94.059 0.200998 94.4917ZM8 89.6192L7.89 89.6192L7.78 88.9042L0.431998 88.9042L0.321998 89.6192L0.211998 89.6192L0.211998 87.4852L0.321998 87.4852L0.431998 88.2112L7.835 88.2112L7.835 85.4392C7.835 85.2852 7.79466 85.1569 7.714 85.0542C7.626 84.9442 7.49033 84.8562 7.307 84.7902C7.12366 84.7169 6.88166 84.6655 6.581 84.6362L5.184 84.5812L5.184 84.4052L8 84.1082L8 89.6192ZM8 82.8946L7.89 82.8946L7.78 82.1796L0.431997 82.1796L0.321998 82.8946L0.211998 82.8946L0.211998 80.7606L0.321997 80.7606L0.431997 81.4866L7.835 81.4866L7.835 78.7146C7.835 78.5606 7.79466 78.4322 7.714 78.3296C7.626 78.2196 7.49033 78.1316 7.307 78.0656C7.12366 77.9922 6.88166 77.9409 6.581 77.9116L5.184 77.8566L5.184 77.6806L8 77.3836L8 82.8946ZM0.211997 69.3688C0.211997 68.6208 0.354997 67.9865 0.640997 67.4658C0.926996 66.9451 1.356 66.5491 1.928 66.2778C2.49266 66.0065 3.204 65.8708 4.062 65.8708C4.93466 65.8708 5.66433 66.0028 6.251 66.2668C6.83033 66.5308 7.26666 66.9195 7.56 67.4328C7.85333 67.9461 8 68.5768 8 69.3248L8 72.6358L7.89 72.6358L7.736 71.9208L0.464997 71.9208L0.321997 72.6358L0.211997 72.6358L0.211997 69.3688ZM0.387997 69.5118C0.387997 69.8051 0.39533 70.1095 0.409997 70.4248C0.424663 70.7401 0.446664 71.0078 0.475997 71.2278L7.615 71.2278L7.835 71.0078L7.835 69.4678C7.835 68.4925 7.516 67.7665 6.878 67.2898C6.24 66.8131 5.29033 66.5748 4.029 66.5748C3.22966 66.5748 2.56233 66.6848 2.027 66.9048C1.48433 67.1175 1.07733 67.4401 0.805997 67.8728C0.52733 68.3055 0.387997 68.8518 0.387997 69.5118ZM0.0469962 60.9653C0.0469962 60.452 0.134996 59.99 0.310996 59.5793C0.486996 59.1613 0.74733 58.8056 1.092 58.5123C1.42933 58.219 1.84733 57.9953 2.346 57.8413C2.83733 57.68 3.40933 57.5993 4.062 57.5993C4.71466 57.5993 5.29766 57.6763 5.811 57.8303C6.317 57.9843 6.746 58.2116 7.098 58.5123C7.44266 58.8056 7.70666 59.1576 7.89 59.5683C8.07333 59.979 8.165 60.4446 8.165 60.9653C8.165 61.486 8.07333 61.9553 7.89 62.3733C7.70666 62.784 7.44266 63.1396 7.098 63.4403C6.746 63.7336 6.31333 63.9573 5.8 64.1113C5.28666 64.2653 4.70733 64.3423 4.062 64.3423C3.43133 64.3423 2.87033 64.2653 2.379 64.1113C1.88033 63.9573 1.45866 63.7336 1.114 63.4403C0.76933 63.147 0.50533 62.7913 0.321997 62.3733C0.138663 61.9553 0.0469962 61.486 0.0469962 60.9653ZM0.200996 60.9653C0.200996 61.3906 0.28533 61.7683 0.453996 62.0983C0.622663 62.4283 0.871996 62.707 1.202 62.9343C1.52466 63.1616 1.92433 63.3376 2.401 63.4623C2.87766 63.5796 3.42766 63.6383 4.051 63.6383C4.689 63.6383 5.25366 63.5796 5.745 63.4623C6.23633 63.3376 6.65066 63.1616 6.988 62.9343C7.318 62.707 7.571 62.4283 7.747 62.0983C7.923 61.7683 8.011 61.3906 8.011 60.9653C8.011 60.5326 7.92666 60.155 7.758 59.8323C7.582 59.5023 7.32533 59.2273 6.988 59.0073C6.65066 58.78 6.23633 58.6076 5.745 58.4903C5.25366 58.373 4.689 58.3143 4.051 58.3143C3.42766 58.3143 2.87766 58.373 2.401 58.4903C1.917 58.6076 1.51366 58.78 1.191 59.0073C0.860996 59.2273 0.61533 59.5023 0.453996 59.8323C0.285329 60.155 0.200996 60.5326 0.200996 60.9653ZM8 49.0412L2.423 51.1532L1.499 50.7792L7.351 48.5572L7.351 48.4472L2.302 46.5552C2.104 46.4819 1.92433 46.4269 1.763 46.3902C1.60166 46.3536 1.455 46.3352 1.323 46.3352C1.13966 46.3352 0.981996 46.3756 0.849996 46.4562C0.710662 46.5369 0.596996 46.6616 0.508996 46.8302C0.420996 46.9989 0.358663 47.2226 0.321996 47.5012L0.211996 47.5012L0.211996 44.9602L0.321996 44.9602L0.486996 45.6862L8 48.5352L8 49.0412ZM8 53.6392L0.475996 56.5102L0.321996 57.2252L0.211997 57.2252L0.211996 54.9812L0.321996 54.9812L0.464996 55.7732L7.351 53.1662L7.351 53.0562L2.313 51.1642C2.12233 51.0909 1.939 51.0359 1.763 50.9992C1.587 50.9626 1.433 50.9442 1.301 50.9442C1.015 50.9442 0.794996 51.0359 0.640996 51.2192C0.479663 51.3952 0.373329 51.6922 0.321996 52.1102L0.211996 52.1102L0.211996 49.5582L0.321996 49.5582L0.475996 50.2842L8 53.1442L8 53.6392ZM8 44.1593L7.89 44.1593L7.736 43.3893L1.158 43.3893C0.996662 43.3893 0.838995 43.4626 0.684996 43.6093C0.523662 43.7559 0.402662 43.9393 0.321996 44.1593L0.211996 44.1593L0.211996 43.0923L7.054 37.6033L7.054 37.4713L2.159 37.4713C1.95366 37.4713 1.76666 37.4896 1.598 37.5263C1.422 37.5629 1.26433 37.6253 1.125 37.7133C0.978329 37.7939 0.853662 37.9003 0.750995 38.0323C0.640995 38.1569 0.552995 38.3109 0.486995 38.4943C0.413662 38.6703 0.358662 38.8756 0.321996 39.1103L0.211996 39.1103L0.211996 36.5033L0.321995 36.5033L0.475996 37.3063L8 37.3063L8 37.6913L1.29 43.1033L1.29 43.2243L5.921 43.2243C6.13366 43.2243 6.33166 43.2059 6.515 43.1693C6.691 43.1253 6.85233 43.0629 6.999 42.9823C7.14566 42.8943 7.27766 42.7843 7.395 42.6523C7.505 42.5129 7.604 42.3479 7.692 42.1573C7.77266 41.9666 7.83866 41.7429 7.89 41.4863L8 41.4863L8 44.1593Z" fill="#2C231E"/>
<path d="M96.4844 56.497C139.623 -12.5083 424.051 -12.5085 472.772 30.9457" stroke="#2C231E"/>
<line x1="18" y1="98.6171" x2="763.965" y2="98.6172" stroke="#2C231E"/>
<line x1="18" y1="85.6874" x2="763.965" y2="85.6874" stroke="#2C231E"/>
<line x1="18" y1="72.7576" x2="763.965" y2="72.7577" stroke="#2C231E"/>
<line x1="18" y1="59.8279" x2="763.965" y2="59.8279" stroke="#2C231E"/>
<line x1="18" y1="46.8981" x2="763.965" y2="46.8982" stroke="#2C231E"/>
<path d="M25.4917 109.692C24.9587 112.697 27.9275 118.939 33.9002 119.143C41.1208 119.389 45.7339 113.555 43.5848 104.034L32.8065 51.4944C31.5235 45.24 32.4865 41.8477 33.1716 39.826C34.9994 34.4323 39.5659 32.2077 40.6777 33.9345C41.3124 34.9203 42.8471 39.5302 38.4784 47.7867C35.0711 54.2261 19.2184 62.6701 18.055 77.7813C17.0478 90.9218 30.0713 100.627 41.3117 96.8116C48.7746 94.2785 52.6217 82.3155 48.0025 76.1448C35.8123 59.8602 16.2622 84.7827 35.2006 91.6103C33.1412 89.899 31.7375 88.5739 31.4762 86.9543C28.9315 71.1852 51.3801 75.3485 45.3316 90.3085C42.8444 96.46 32.7981 97.65 27.0768 92.1619C22.2842 87.5646 20.1575 78.7083 25.4909 72.3503C32.7144 63.7391 41.2431 56.0088 43.5082 44.2207C46.1869 30.2808 37.4413 19.4131 31.9122 33.125C30.0569 37.7261 29.3658 42.3448 31.1422 51.1956L41.912 104.854C42.683 108.695 42.1668 113.981 38.7723 116.411C37.0908 117.614 31.1406 118.443 29.6848 115.57" fill="#2C231E"/>
<path d="M25.4917 109.692C24.9587 112.697 27.9275 118.939 33.9002 119.143C41.1208 119.389 45.7339 113.555 43.5848 104.034L32.8065 51.4944C31.5235 45.24 32.4865 41.8477 33.1716 39.826C34.9994 34.4323 39.5659 32.2077 40.6777 33.9345C41.3124 34.9203 42.8471 39.5302 38.4784 47.7867C35.0711 54.2261 19.2184 62.6701 18.055 77.7813C17.0478 90.9218 30.0713 100.627 41.3117 96.8116C48.7746 94.2785 52.6217 82.3155 48.0025 76.1448C35.8123 59.8602 16.2622 84.7827 35.2006 91.6103C33.1412 89.899 31.7375 88.5739 31.4762 86.9543C28.9315 71.1852 51.3801 75.3485 45.3316 90.3085C42.8444 96.46 32.7981 97.65 27.0768 92.1619C22.2842 87.5646 20.1575 78.7083 25.4909 72.3503C32.7144 63.7391 41.2431 56.0088 43.5082 44.2207C46.1869 30.2808 37.4413 19.4131 31.9122 33.125C30.0569 37.7261 29.3658 42.3448 31.1422 51.1956L41.912 104.854C42.683 108.695 42.1668 113.981 38.7723 116.411C37.0908 117.614 31.1406 118.443 29.6848 115.57" stroke="#2C231E" stroke-width="0.101028"/>
<path d="M25.4021 110.143C25.4278 108.696 25.9873 107.319 26.9576 106.315C27.9279 105.311 29.2294 104.762 30.5759 104.789C31.9224 104.816 33.2035 105.416 34.1375 106.458C35.0714 107.499 35.5816 108.897 35.5559 110.344C35.5302 111.791 34.9707 113.167 34.0004 114.171C33.0301 115.175 31.7285 115.725 30.3821 115.698C29.0356 115.671 27.7544 115.071 26.8205 114.029C25.8866 112.987 25.3763 111.589 25.4021 110.143Z" fill="#2C231E" stroke="#2C231E" stroke-width="0.101028"/>
<path d="M218.255 30.3949C218.506 29.0426 219.57 28.0904 220.482 27.2117C222.504 25.4853 224.907 24.1783 227.46 23.7721C228.212 23.7034 229.416 23.6825 229.535 24.7365C229.641 25.85 228.785 26.7386 228.132 27.4939C226.46 29.225 224.364 30.439 222.191 31.2457C221.068 31.5818 219.757 32.0157 218.671 31.3803C218.377 31.1638 218.197 30.7845 218.255 30.3949ZM221.101 33.5083C223.923 33.7498 226.752 32.3254 228.704 30.1403C230.014 28.6393 230.999 26.3792 230.233 24.3613C229.664 22.7433 228.025 21.9696 226.507 21.9172C223.896 21.7329 221.338 23.0517 219.425 24.9298C218.003 26.379 216.854 28.5606 217.404 30.7033C217.801 32.2629 219.189 33.2773 220.635 33.4485C220.79 33.4733 220.946 33.4937 221.101 33.5083Z" fill="#2C231E" stroke="#2C231E" stroke-width="0.400015"/>
<path d="M217.106 85.214L217.065 50.8538L217.022 29.7652L218.711 31.3095L218.57 85.2281L217.106 85.214Z" fill="#2C231E"/>
<path opacity="0.97" fill-rule="evenodd" clip-rule="evenodd" d="M404.535 45.4888C407.703 43.714 409.391 40.5012 408.352 38.0843C407.245 35.5063 403.439 34.7787 399.857 36.4603C396.275 38.1418 394.267 41.5989 395.374 44.1769C396.482 46.7549 400.288 47.4825 403.87 45.8009C404.094 45.6958 404.324 45.6071 404.535 45.4888Z" fill="#2C231E"/>
<path d="M395.163 87.4981L395.125 62.9643L395.088 42.2822L396.66 42.2822L396.529 87.5131L395.163 87.4981Z" fill="#2C231E"/>
<path opacity="0.97" fill-rule="evenodd" clip-rule="evenodd" d="M477.627 50.756C480.795 48.9812 482.483 45.7684 481.444 43.3515C480.337 40.7735 476.531 40.0459 472.949 41.7275C469.367 43.4091 467.359 46.8661 468.466 49.4441C469.574 52.0221 473.38 52.7497 476.962 51.0682C477.186 50.9631 477.415 50.8743 477.627 50.756Z" fill="#2C231E"/>
<path d="M468.254 92.7654L468.217 68.2316L468.179 47.5495L469.752 47.5495L469.621 92.7803L468.254 92.7654Z" fill="#2C231E"/>
<path opacity="0.97" fill-rule="evenodd" clip-rule="evenodd" d="M99.4645 76.9662C102.632 75.1914 104.32 71.9786 103.282 69.5617C102.174 66.9837 98.3685 66.2562 94.7866 67.9377C91.2047 69.6193 89.1966 73.0763 90.3041 75.6543C91.4117 78.2323 95.2177 78.9599 98.7996 77.2784C99.0235 77.1733 99.2533 77.0846 99.4645 76.9662Z" fill="#2C231E"/>
<path d="M90.0922 118.976L90.0548 94.4417L90.0173 73.7596L91.5898 73.7596L91.4588 118.99L90.0922 118.976Z" fill="#2C231E"/>
<path opacity="0.97" fill-rule="evenodd" clip-rule="evenodd" d="M129.638 58.2903C132.806 56.5155 134.494 53.3027 133.456 50.8858C132.348 48.3078 128.542 47.5802 124.96 49.2617C121.379 50.9433 119.37 54.4003 120.478 56.9784C121.586 59.5564 125.392 60.2839 128.973 58.6024C129.197 58.4973 129.427 58.4086 129.638 58.2903Z" fill="#2C231E"/>
<path d="M120.258 113.723L120.221 75.7655L120.183 55.0834L121.756 55.0834L121.625 113.738L120.258 113.723Z" fill="#2C231E"/>
<path opacity="0.97" fill-rule="evenodd" clip-rule="evenodd" d="M159.81 45.3604C162.978 43.5856 164.666 40.3728 163.628 37.9559C162.52 35.3779 158.714 34.6503 155.132 36.3319C151.55 38.0134 149.542 41.4705 150.65 44.0485C151.757 46.6265 155.563 47.3541 159.145 45.6725C159.369 45.5674 159.599 45.4787 159.81 45.3604Z" fill="#2C231E"/>
<path d="M150.438 109.398L150.401 62.8359L150.363 42.1538L151.936 42.1538L151.805 109.413L150.438 109.398Z" fill="#2C231E"/>
<path d="M90.002 116.357L151.777 106.54V109.413L90.002 119.23V116.357Z" fill="#2C231E"/>
<path d="M90.002 110.371L151.777 100.554V103.427L90.002 113.244V110.371Z" fill="#2C231E"/>
<line x1="201.162" y1="46.9194" x2="201.162" y2="99.1172" stroke="#2C231E" stroke-width="2"/>
<line x1="577.801" y1="46.9194" x2="577.801" y2="99.1172" stroke="#2C231E" stroke-width="2"/>
<line x1="211.65" y1="33.9684" x2="233.679" y2="33.9684" stroke="#2C231E"/>
</svg>
