<svg width="67" height="171" viewBox="0 0 67 171" fill="none" xmlns="http://www.w3.org/2000/svg">
<g clip-path="url(#clip0_465_180)">
<path d="M14.8213 28.1124L27.5093 0.538086L45.2887 0.625663V69.3425L45.4505 71.3559L46.1778 73.1066L47.39 73.982L48.8447 74.8573L51.2691 75.9078L52.8047 76.2579L53.2089 76.7832L53.1282 83.1734L16.7613 83.0858L16.6806 77.0457L17.1655 76.1704L18.2161 75.7327L20.8022 75.295L22.4993 74.5071L24.2773 72.8439L24.7621 71.5309L25.3278 27.412L24.6813 26.7117L24.1156 26.9743L19.9132 30.826L18.6202 31.1761L15.1451 29.0752L14.8213 28.1124Z" fill="black"/>
<path d="M23.1074 97.1322C25.7051 98.822 27.4688 101.518 27.7464 104.634C28.3507 107.354 27.2501 110.257 26.0148 112.601C23.6669 114.672 20.5579 115.822 17.5722 116.544C14.1249 116.229 10.2039 115.822 8.00064 112.779C5.78258 110.498 5.18585 107.091 4.76457 104.055C5.14242 99.6935 6.00672 94.8551 10.1199 92.4478C14.3446 88.7416 19.8857 86.89 25.3555 86.0794C32.2636 84.9737 39.3112 85.6573 46.1401 86.8708C50.4573 88.7581 54.98 90.547 58.1948 94.1455C60.2929 95.8919 61.468 98.5447 62.5971 100.969C63.9375 103.763 63.4455 106.883 63.2348 109.852C62.4329 112.123 61.9024 114.241 60.0564 116.196C58.199 118.718 56.251 121.175 52.9892 122.477C51.6913 123.088 48.6412 123.593 48.2762 124.237C51.5517 125.59 54.9734 126.688 57.5895 129.197C59.8265 131.287 62.3367 133.198 63.3522 136.214C64.8583 139.384 65.1121 143.009 64.7286 146.473C64.6461 149.069 63.5767 151.595 62.7254 153.992C60.6173 156.644 58.6049 159.397 55.6111 161.11C52.5307 163.628 48.8944 165.421 45.1545 166.674C41.5499 167.517 37.9428 168.336 34.2176 167.964C27.7115 168.142 21.0505 167.331 15.2993 164.063C9.42948 161.805 3.74785 156.835 3.61979 150.086C2.94187 147.6 3.45807 144.849 4.46131 142.547C6.34748 138.785 10.3738 136.591 14.4914 136.415C17.6524 135.705 20.8917 137.04 23.5207 138.704C25.0899 140.188 26.484 141.77 26.6765 144.019C27.3643 146.866 27.3561 150.173 26.0467 152.794C24.9446 154.843 22.5158 156.867 23.6153 159.353C25.3691 160.401 27.1042 161.525 29.2338 161.028C31.6119 160.983 34.1539 160.657 36.3103 159.713C39.5455 157.835 42.2486 154.976 43.2601 151.303C45.2694 146.753 45.1034 141.359 42.5047 137.056C40.491 134.241 37.9088 131.48 34.7184 130.044C30.5665 128.525 26.1627 127.939 21.7871 127.479L21.9902 121.267C26.2708 120.974 30.7656 120.87 34.7751 119.287C37.2278 118.225 39.6465 116.557 40.9438 114.202C42.0039 112.074 42.8711 109.903 42.5614 107.478C42.7959 104.4 41.928 101.302 40.9773 98.4296C39.9894 95.9877 37.8941 94.3647 35.7097 93.0736C31.9674 91.5816 27.7538 91.5168 23.9514 92.7958C22.0676 93.1085 21.191 95.533 22.8152 96.7416L23.0004 96.9892L23.1074 97.1322Z" fill="black"/>
</g>
<defs>
<clipPath id="clip0_465_180">
<rect width="67" height="171" fill="white"/>
</clipPath>
</defs>
</svg>
